<svg viewBox="0 0 24 24" xmlns="http://www.w3.org/2000/svg" id="Award-Trophy-Star-1--Streamline-Ultimate.svg" height="24" width="24"><desc>Award Trophy Star 1 Streamline Icon: https://streamlinehq.com</desc><path d="M3.113 9.253A4 4 0 0 1 0.5 5.5v-1a1 1 0 0 1 1 -1h3.3" fill="none" stroke="#000000" stroke-linecap="round" stroke-linejoin="round" stroke-width="1"></path><path d="M20.887 9.253A4 4 0 0 0 23.5 5.5v-1a1 1 0 0 0 -1 -1h-3.3" fill="none" stroke="#000000" stroke-linecap="round" stroke-linejoin="round" stroke-width="1"></path><path d="M12.479 3.287 13.507 5.5h2a0.489 0.489 0 0 1 0.345 0.855l-1.736 1.71 0.962 2.209a0.524 0.524 0 0 1 -0.746 0.655l-2.324 -1.307 -2.324 1.307a0.524 0.524 0 0 1 -0.746 -0.655L9.9 8.065 8.164 6.357a0.489 0.489 0 0 1 0.344 -0.857h2l1.029 -2.215a0.53 0.53 0 0 1 0.942 0.002Z" fill="none" stroke="#000000" stroke-linecap="round" stroke-linejoin="round" stroke-width="1"></path><path d="m12 15.5 0 4.5" fill="none" stroke="#000000" stroke-linecap="round" stroke-linejoin="round" stroke-width="1"></path><path d="M6 23.5c0 -1.933 2.686 -3.5 6 -3.5s6 1.567 6 3.5Z" fill="none" stroke="#000000" stroke-linecap="round" stroke-linejoin="round" stroke-width="1"></path><path d="M18.6 9.53c-0.449 4.492 -5.838 7.865 -10.258 4.776a7.312 7.312 0 0 1 -2.991 -5.293l-0.8 -7.963a0.5 0.5 0 0 1 0.5 -0.55h13.9a0.5 0.5 0 0 1 0.5 0.55Z" fill="none" stroke="#000000" stroke-linecap="round" stroke-linejoin="round" stroke-width="1"></path></svg>