<svg xmlns="http://www.w3.org/2000/svg" fill="none" viewBox="0 0 24 24" id="Online-Certificate-Code--Streamline-Ultimate.svg" height="24" width="24"><desc>Online Certificate Code Streamline Icon: https://streamlinehq.com</desc><path stroke="#000000" stroke-linecap="round" stroke-linejoin="round" stroke-miterlimit="10" d="M21.35 6.85v-4.7c0 -0.8 -0.6 -1.4 -1.4 -1.4H2.14996c-0.8 0 -1.399991 0.6 -1.399991 1.4v13.7c0 0.8 0.599991 1.4 1.399991 1.4H13.75" stroke-width="1"></path><path stroke="#000000" stroke-linecap="round" stroke-linejoin="round" stroke-miterlimit="10" d="m8.74994 17.25 -0.7 4.1" stroke-width="1"></path><path stroke="#000000" stroke-linecap="round" stroke-linejoin="round" stroke-miterlimit="10" d="M12.85 21.35H6.94997" stroke-width="1"></path><path stroke="#000000" stroke-linecap="round" stroke-linejoin="round" stroke-miterlimit="10" d="M6.30017 6.39999 3.80017 9l2.5 2.7" stroke-width="1"></path><path stroke="#000000" stroke-linecap="round" stroke-linejoin="round" stroke-miterlimit="10" d="M14.2002 6.39999 16.7002 9l-2.5 2.7" stroke-width="1"></path><path stroke="#000000" stroke-linecap="round" stroke-linejoin="round" stroke-miterlimit="10" d="m8.90021 12.5 2.69999 -7" stroke-width="1"></path><path stroke="#000000" stroke-linecap="round" stroke-linejoin="round" stroke-miterlimit="10" d="m22.0456 17.625 0.7 5.0967c0.1 0.6 -0.6 1 -1.1 0.6l-1.7 -1.7 -1.7 1.7c-0.4 0.4 -1.2 0 -1.1 -0.6l0.7 -5.0967" stroke-width="1"></path><path stroke="#000000" stroke-linecap="round" stroke-linejoin="round" stroke-miterlimit="10" d="M19.9461 18.3217c-1.933 0 -3.5 -1.567 -3.5 -3.5s1.567 -3.5 3.5 -3.5 3.5 1.567 3.5 3.5 -1.567 3.5 -3.5 3.5Z" stroke-width="1"></path><path stroke="#000000" stroke-linecap="round" stroke-linejoin="round" stroke-miterlimit="10" d="M19.9461 16.1073c-0.71 0 -1.2856 -0.5756 -1.2856 -1.2856 0 -0.71 0.5756 -1.2856 1.2856 -1.2856 0.71 0 1.2857 0.5756 1.2857 1.2856 0 0.71 -0.5757 1.2856 -1.2857 1.2856Z" stroke-width="1"></path></svg>