<svg id="Multiple-Actions-Monitor--Streamline-Ultimate.svg" xmlns="http://www.w3.org/2000/svg" viewBox="0 0 24 24" height="24" width="24"><desc>Multiple Actions Monitor Streamline Icon: https://streamlinehq.com</desc><defs></defs><title>multiple-actions-monitor</title><path d="M14.5 14.5h8s1 0 1 1v5s0 1 -1 1h-8s-1 0 -1 -1v-5s0 -1 1 -1" fill="none" stroke="#000000" stroke-linecap="round" stroke-linejoin="round" stroke-width="1"></path><path d="m18.5 21.5 0 2" fill="none" stroke="#000000" stroke-linecap="round" stroke-linejoin="round" stroke-width="1"></path><path d="m15.5 23.5 6 0" fill="none" stroke="#000000" stroke-linecap="round" stroke-linejoin="round" stroke-width="1"></path><path d="M10.5 15.5H0.5a6 6 0 0 1 11.659 -2" fill="none" stroke="#000000" stroke-linecap="round" stroke-linejoin="round" stroke-width="1"></path><path d="M2.75 4.25a3.75 3.75 0 1 0 7.5 0 3.75 3.75 0 1 0 -7.5 0" fill="none" stroke="#000000" stroke-linecap="round" stroke-linejoin="round" stroke-width="1"></path><path d="M12.25 4.25a3.75 3.75 0 1 0 7.5 0 3.75 3.75 0 1 0 -7.5 0" fill="none" stroke="#000000" stroke-linecap="round" stroke-linejoin="round" stroke-width="1"></path><path d="M21.2 12.51a6 6 0 0 0 -8.172 -2.225" fill="none" stroke="#000000" stroke-linecap="round" stroke-linejoin="round" stroke-width="1"></path></svg>