<svg xmlns="http://www.w3.org/2000/svg" viewBox="0 0 48 48" id="Programming-User-1--Streamline-Ultimate.svg" height="48" width="48"><desc>Programming User 1 Streamline Icon: https://streamlinehq.com</desc><g><path d="M26 29h19a2 2 0 0 0 2 -2v-24a2 2 0 0 0 -2 -2h-24" fill="none" stroke="#000000" stroke-linecap="round" stroke-linejoin="round" stroke-width="1"></path><g><path d="m11 22 0 6" fill="none" stroke="#000000" stroke-linecap="round" stroke-linejoin="round" stroke-width="1"></path><path d="m15 47 1 -12h5V28a10 10 0 0 0 -20 0v7H6l1 12Z" fill="none" stroke="#000000" stroke-linecap="round" stroke-linejoin="round" stroke-width="1"></path><path d="M4.96 4.44A11.58 11.58 0 0 0 13.34 8 11.82 11.82 0 0 0 18 7.06" fill="none" stroke="#000000" stroke-linecap="round" stroke-linejoin="round" stroke-width="1"></path><path d="M4 8a7 7 0 1 0 14 0 7 7 0 1 0 -14 0" fill="none" stroke="#000000" stroke-linecap="round" stroke-linejoin="round" stroke-width="1"></path></g><path d="M25 9 30 14l-5 5" fill="none" stroke="#000000" stroke-linecap="round" stroke-linejoin="round" stroke-width="1"></path><path d="m35 15 8 0" fill="none" stroke="#000000" stroke-linecap="round" stroke-linejoin="round" stroke-width="1"></path></g></svg>