<svg width="163" height="121" viewBox="0 0 163 121" fill="none" xmlns="http://www.w3.org/2000/svg">
<rect x="0.537567" width="162.473" height="119.284" transform="rotate(0.258209 0.537567 0)" fill="#0D47A1"/>
<path d="M85.0646 29.2274C87.8482 29.2274 90.16 29.1516 92 29C92 30.7687 91.882 32.1079 91.6462 33.0175C90.5138 33.068 89.6411 33.4218 89.0277 34.0787C88.4615 34.6851 88.0369 35.7464 87.7539 37.2624C87.518 38.7784 87.4 40.9514 87.4 43.7813V80.4694C86.362 80.8232 85.0174 81 83.3662 81L55.5538 41.6589V65.6122C55.5538 68.5433 55.6954 70.792 55.9785 72.3586C56.2615 73.8746 56.7569 74.9611 57.4646 75.6181C58.2195 76.2751 59.2811 76.6287 60.6492 76.6793C60.9323 77.5889 61.0738 78.9281 61.0738 80.6968C58.9508 80.5452 56.4738 80.4694 53.6431 80.4694C50.2462 80.4694 47.6985 80.5452 46 80.6968C46 78.9786 46.118 77.6395 46.3538 76.6793C47.722 76.6287 48.76 76.2751 49.4677 75.6181C50.2226 74.9611 50.7415 73.8746 51.0246 72.3586C51.3549 70.792 51.52 68.5433 51.52 65.6122V35.9738L51.0246 35.2915C50.4112 34.483 49.798 33.9271 49.1846 33.6239C48.6185 33.3207 47.6749 33.1186 46.3538 33.0175C46.118 31.9563 46 30.6171 46 29C47.5097 29.1516 49.6328 29.2274 52.3692 29.2274C54.6811 29.2274 56.5682 29.1516 58.0308 29L83.2954 65.2332V43.7813C83.2954 40.9009 83.1538 38.7279 82.8708 37.2624C82.5877 35.7464 82.0688 34.6851 81.3138 34.0787C80.6062 33.4218 79.5446 33.068 78.1292 33.0175C77.8462 31.6025 77.7046 30.2634 77.7046 29C79.7805 29.1516 82.2339 29.2274 85.0646 29.2274Z" fill="white"/>
<path d="M115.886 81C111.1 81 106.906 79.9261 103.303 77.7781C99.701 75.5803 96.9052 72.4832 94.9147 68.487C92.9719 64.4909 92 59.7954 92 54.4006C92 49.0558 93.1141 44.4852 95.3412 40.6888C97.6161 36.8425 100.625 33.9452 104.37 31.9971C108.161 29.999 112.332 29 116.882 29C120.057 29 123.114 29.3247 126.052 29.9741C129.038 30.6234 131.645 31.4976 133.872 32.5965C133.351 35.4438 133.09 39.3151 133.09 44.2104C131.953 44.7598 130.389 45.0346 128.398 45.0346C128.208 40.439 127.166 37.2671 125.27 35.5187C123.374 33.7205 120.673 32.8213 117.166 32.8213C113.706 32.8213 110.791 33.7454 108.422 35.5937C106.053 37.3919 104.299 39.8146 103.161 42.8617C102.024 45.8588 101.455 49.1556 101.455 52.7522C101.455 57.2978 102.047 61.3938 103.232 65.0403C104.464 68.6369 106.266 71.4842 108.635 73.5821C111.004 75.6301 113.848 76.6542 117.166 76.6542C118.446 76.6542 119.535 76.6042 120.436 76.5043C121.337 76.3545 122.213 76.1047 123.066 75.755C123.919 75.4053 124.511 74.8559 124.844 74.1066C125.222 73.3074 125.412 72.0086 125.412 70.2104V66.7637C125.412 64.6157 125.27 63.0922 124.986 62.1931C124.701 61.2939 124.18 60.6945 123.422 60.3948C122.663 60.0451 121.384 59.8454 119.583 59.7954C119.299 58.7964 119.156 57.4226 119.156 55.6744C120.53 55.8242 123.541 55.8991 128.185 55.8991C132.782 55.8991 135.72 55.8491 137 55.7493C137 57.4976 136.858 58.8463 136.573 59.7954C135.626 59.8454 134.938 60.0202 134.512 60.3199C134.085 60.6196 133.801 61.219 133.659 62.1182C133.517 62.9673 133.445 64.416 133.445 66.464V69.3862C133.445 70.7849 133.493 71.9337 133.588 72.8329C133.73 73.682 134.014 74.5062 134.441 75.3055C132.214 77.0039 129.488 78.3775 126.265 79.4265C123.09 80.4755 119.631 81 115.886 81Z" fill="white"/>
<path d="M36.7791 58.112C36.0281 57.7906 35.1887 58.187 34.8972 58.9669L34.8931 58.9784L28.0933 78.9115C27.8082 79.6836 28.1549 80.5706 28.8968 80.8879C29.6478 81.2094 30.4871 80.813 30.7787 80.0332L30.7829 80.0217L37.5827 60.0885C37.8678 59.3164 37.5209 58.4295 36.7791 58.112ZM25.6539 75.2258C26.2113 74.6294 26.2113 73.6681 25.6539 73.0717L22.4749 69.6707L25.6539 66.2697C26.2113 65.6733 26.2113 64.7121 25.6539 64.1157C25.0893 63.5117 24.1682 63.5117 23.6036 64.1157L19.418 68.5937C18.8607 69.1901 18.8607 70.1514 19.418 70.7476L23.6036 75.2257C24.1682 75.8296 25.0893 75.8297 25.6539 75.2258ZM40.346 64.1157C39.7888 64.7119 39.7888 65.6733 40.346 66.2696L43.525 69.6707L40.346 73.0717C39.7888 73.668 39.7888 74.6294 40.346 75.2257C40.9106 75.8296 41.8318 75.8297 42.3964 75.2258L46.582 70.7476C47.1392 70.1514 47.1393 69.1901 46.5821 68.5938L42.3964 64.1157C41.8318 63.5117 40.9107 63.5117 40.346 64.1157Z" fill="white" stroke="white" stroke-width="0.7"/>
</svg>
