<svg width="2645" height="1407" viewBox="0 0 2645 1407" fill="none" xmlns="http://www.w3.org/2000/svg">
<path d="M305.647 1402.81C305.647 1402.81 -55.856 1018.62 197.632 660.25C292.22 526.525 533.7 451.432 755.68 512.352C886.796 548.336 1085.65 543.027 1279.95 225.849C1544.91 -206.694 2644.84 -10.0145 2430.14 747.824C2339.71 1067.04 2676.79 1081.57 2509.82 1403.49L305.647 1402.81Z" fill="#EBF3FA" style="fill:#EBF3FA;fill:color(display-p3 0.9216 0.9529 0.9804);fill-opacity:1;"/>
<path d="M2262.75 633.188L1475.33 1291.94L1061.03 939.004C983.493 1007.29 863.737 1112.68 743.26 1218.44C660.928 1290.72 594.271 1349.13 540.243 1396.39L163.949 1395.95C268.299 1307.11 688.453 937.9 971.508 688.381L1058.06 612.091L1476.86 968.869L2091.57 454.603L2262.75 633.188Z" fill="#D5E5FB" style="fill:#D5E5FB;fill:color(display-p3 0.8353 0.8980 0.9843);fill-opacity:1;"/>
<path d="M1991.89 373.59L2366.91 749.755L2472.85 320.039L1991.89 373.59Z" fill="#D5E5FB" style="fill:#D5E5FB;fill:color(display-p3 0.8353 0.8980 0.9843);fill-opacity:1;"/>
<path d="M762.499 1166.2C761.099 1131.75 758.08 1101.79 754.466 1080.89C748.706 1047.59 743.52 1028.42 743.46 1028.22C742.701 1025.29 731.74 1013.44 707.368 1013.8C682.997 1014.17 685.308 1029.71 685.308 1029.71C685.306 1030.24 685.375 1030.73 685.482 1031.09C685.717 1031.9 708.089 1113.01 707.12 1217.74C707.106 1219.21 706.941 1221.76 707.046 1223.45C707.046 1223.46 763.523 1224.91 763.537 1223.45C765.508 1214.3 764.547 1188.93 762.499 1166.2Z" fill="#B7D3F3" style="fill:#B7D3F3;fill:color(display-p3 0.7176 0.8275 0.9529);fill-opacity:1;"/>
<path d="M769.6 1217.23C769.583 1218.69 768.813 1219.86 767.873 1219.86H767.851C766.912 1219.83 766.164 1218.67 766.153 1217.23H717.752C717.735 1218.69 716.964 1219.86 716.025 1219.86H716.002C715.046 1219.83 714.287 1218.63 714.298 1217.15C714.579 1187.17 712.87 1159.18 710.282 1134.47C703.848 1072.85 691.953 1031.67 691.784 1031.1C691.677 1030.73 691.61 1030.24 691.61 1029.71C691.61 1029.71 689.298 1014.17 713.668 1013.8C738.043 1013.44 749.004 1025.29 749.764 1028.22C749.809 1028.37 752.745 1039.23 756.648 1058.73C757.941 1065.2 759.336 1072.61 760.77 1080.89C764.38 1101.79 767.401 1131.75 768.801 1166.19C770.849 1188.93 771.569 1208.08 769.6 1217.23Z" fill="#D2E3FC" style="fill:#D2E3FC;fill:color(display-p3 0.8235 0.8902 0.9882);fill-opacity:1;"/>
<path d="M710.722 1219.86H900.48C900.48 1219.86 896.061 1201.97 786.165 1204.64C708.394 1206.52 710.722 1219.86 710.722 1219.86Z" fill="#C5DCF8" style="fill:#C5DCF8;fill:color(display-p3 0.7725 0.8627 0.9725);fill-opacity:1;"/>
<path d="M695.277 1406.64C717.278 1295.26 711.621 1226.91 711.593 1226.05C711.537 1224.34 714.698 1222.78 716.398 1222.72C718.119 1222.69 725.713 1222.22 726.592 1223.69C727.743 1225.61 732.173 1309.82 699.383 1406.64H695.277Z" fill="#B7D3F3" style="fill:#B7D3F3;fill:color(display-p3 0.7176 0.8275 0.9529);fill-opacity:1;"/>
<path d="M872.451 1406.64C850.45 1295.26 856.107 1226.91 856.135 1226.05C856.191 1224.34 853.03 1222.78 851.33 1222.72C849.608 1222.69 842.015 1222.22 841.136 1223.69C839.985 1225.61 835.554 1309.82 868.345 1406.64H872.451Z" fill="#B7D3F3" style="fill:#B7D3F3;fill:color(display-p3 0.7176 0.8275 0.9529);fill-opacity:1;"/>
<path d="M907.563 1406.64C885.561 1295.26 891.219 1226.91 891.247 1226.05C891.302 1224.34 888.142 1222.78 886.442 1222.72C884.72 1222.69 877.126 1222.22 876.248 1223.69C875.097 1225.61 870.666 1309.82 903.457 1406.64H907.563Z" fill="#B7D3F3" style="fill:#B7D3F3;fill:color(display-p3 0.7176 0.8275 0.9529);fill-opacity:1;"/>
<path d="M730.625 1406.64C752.627 1295.26 746.969 1226.91 746.941 1226.05C746.886 1224.34 750.047 1222.78 751.746 1222.72C753.468 1222.69 761.062 1222.22 761.94 1223.69C763.091 1225.61 767.522 1309.82 734.731 1406.64H730.625Z" fill="#B7D3F3" style="fill:#B7D3F3;fill:color(display-p3 0.7176 0.8275 0.9529);fill-opacity:1;"/>
<path d="M900.592 1225.56H710.834C708.696 1225.56 706.947 1223.82 706.947 1221.68V1219.12C706.947 1216.98 708.696 1215.23 710.834 1215.23H900.592C902.73 1215.23 904.479 1216.98 904.479 1219.12V1221.68C904.479 1223.82 902.73 1225.56 900.592 1225.56Z" fill="#B7D3F3" style="fill:#B7D3F3;fill:color(display-p3 0.7176 0.8275 0.9529);fill-opacity:1;"/>
<path d="M893.926 1054.2L957.003 1040.53L960.718 1049.59C960.718 1049.59 891.119 1091 884.598 1088.97C878.077 1086.95 893.926 1054.2 893.926 1054.2Z" fill="#FFB27D" style="fill:#FFB27D;fill:color(display-p3 1.0000 0.6980 0.4902);fill-opacity:1;"/>
<path d="M836.579 1339.47C834.999 1341.28 834.798 1343.3 835.58 1345.46C835.58 1345.47 835.586 1345.49 835.595 1345.49C837.041 1349.49 841.818 1353.95 847.367 1358.41C848.075 1358.98 848.706 1359.5 849.256 1359.98C849.4 1360.11 849.545 1360.23 849.68 1360.36C849.792 1360.46 849.899 1360.56 850.007 1360.66C855.181 1365.43 853.234 1366.52 862.53 1376.2C873.13 1387.23 880.427 1387.43 882.504 1386.42C884.26 1385.56 880.692 1379.71 876.738 1373.14C876.546 1372.82 876.359 1372.5 876.162 1372.18C875.636 1371.31 875.112 1370.42 874.59 1369.54C869.956 1361.63 871.146 1357.92 872.244 1346.14C873.137 1336.57 887.13 1292.69 887.13 1292.69L866.817 1289.19C866.817 1289.19 860.7 1324.13 853.96 1329.52C850.356 1332.39 846.322 1332.42 842.858 1334.55C842.613 1334.7 842.373 1334.85 842.137 1335C840.169 1336.31 838.164 1337.66 836.579 1339.47Z" fill="#FFB27D" style="fill:#FFB27D;fill:color(display-p3 1.0000 0.6980 0.4902);fill-opacity:1;"/>
<path d="M836.579 1339.47C834.999 1341.28 834.798 1343.3 835.58 1345.46C835.58 1345.47 835.586 1345.48 835.595 1345.49C837.366 1349.48 842.023 1353.92 847.386 1358.36C848.087 1358.95 848.705 1359.48 849.256 1359.98C849.4 1360.11 849.545 1360.23 849.68 1360.36C849.792 1360.46 849.899 1360.56 850.007 1360.66C855.181 1365.43 853.234 1366.52 862.53 1376.2C873.13 1387.22 880.427 1387.42 882.504 1386.42C884.26 1385.56 880.692 1379.71 876.738 1373.14C874.675 1372.38 865.09 1368.49 857.844 1359.22C851.461 1351.07 847.205 1340.61 842.859 1334.55C842.614 1334.69 842.374 1334.85 842.138 1335C840.169 1336.31 838.164 1337.65 836.579 1339.47Z" fill="#1C468A" style="fill:#1C468A;fill:color(display-p3 0.1098 0.2745 0.5412);fill-opacity:1;"/>
<path d="M1000.37 1326.78C1001.62 1333.05 1010.56 1332.01 1020.54 1329.57C1030.53 1327.13 1028.16 1330.03 1042.37 1328.45C1056.58 1326.88 1060.88 1321.58 1061.32 1319.47C1061.7 1317.59 1054.68 1316.93 1047.15 1316.07C1046.2 1315.96 1045.25 1315.84 1044.3 1315.73C1035.8 1314.66 1029.57 1309.17 1021.85 1304.66C1014.53 1300.4 1003.61 1283 1003.61 1283L984.122 1284.55C984.122 1284.55 994.349 1300.08 998.305 1306.84C1000.63 1310.81 1000.51 1316.06 1000.22 1320.12C1000.07 1322.32 999.924 1324.57 1000.37 1326.78Z" fill="#FFB27D" style="fill:#FFB27D;fill:color(display-p3 1.0000 0.6980 0.4902);fill-opacity:1;"/>
<path d="M1020.55 1329.57C1030.53 1327.13 1028.16 1330.03 1042.37 1328.46C1056.58 1326.88 1060.88 1321.58 1061.32 1319.47C1061.7 1317.6 1054.68 1316.93 1047.15 1316.07L1047.08 1316.21C1047.08 1316.21 1038.56 1322.26 1026.73 1322.54C1017.09 1322.77 1006.88 1320.01 1000.22 1320.12C1000.07 1322.32 999.923 1324.58 1000.37 1326.79C1001.62 1333.05 1010.56 1332.01 1020.55 1329.57Z" fill="#1C468A" style="fill:#1C468A;fill:color(display-p3 0.1098 0.2745 0.5412);fill-opacity:1;"/>
<path d="M957.003 1040.53C957.003 1040.53 961.646 1029.16 966.754 1028.69C971.862 1028.23 988.114 1025.67 989.275 1028C990.436 1030.32 989.275 1038.68 985.793 1041.69C982.311 1044.71 960.719 1049.59 960.719 1049.59L957.003 1040.53Z" fill="#FFB27D" style="fill:#FFB27D;fill:color(display-p3 1.0000 0.6980 0.4902);fill-opacity:1;"/>
<path d="M925.68 1202.16L883.677 1315.2C883.677 1315.2 877.224 1315.83 871.038 1314.04C865.345 1312.4 858.822 1308.1 858.822 1308.1C858.822 1308.1 869.241 1199.56 888.344 1176.98C907.446 1154.41 925.68 1202.16 925.68 1202.16Z" fill="#163560" style="fill:#163560;fill:color(display-p3 0.0863 0.2078 0.3765);fill-opacity:1;"/>
<path d="M759.547 1156.43C759.547 1156.43 880.239 1115.62 907.156 1124.31C934.073 1132.99 1014.89 1293.78 1014.89 1293.78C1014.89 1293.78 1013.07 1296.21 1008.09 1298.08C1003.46 1299.81 992.248 1299.7 992.248 1299.7C992.248 1299.7 919.311 1237.18 910.629 1218.95C901.946 1200.72 898.473 1183.35 889.79 1185.09C881.107 1186.82 777.78 1227.63 754.336 1203.32C730.892 1179.01 737.023 1147.42 737.023 1147.42L759.547 1156.43Z" fill="#1C468A" style="fill:#1C468A;fill:color(display-p3 0.1098 0.2745 0.5412);fill-opacity:1;"/>
<path d="M828.355 868.664C823.138 865.699 816.886 865.375 812.513 865.634C813.639 864.472 815.854 864.048 815.854 864.048C813.142 863.645 807.09 866.334 807.09 866.334C769.37 851.8 763.441 907.34 764.234 920.243C765.021 933.144 765.116 947.997 746.287 959.569C709.238 982.339 740.498 1022.09 740.498 1022.09C740.79 1022.26 757.736 1051 757.736 1051C756.784 1040.58 804.895 985.551 829.995 969.071C836.105 960.076 838.277 944.184 838.439 942.933C837.384 955.534 835.229 962.601 833.302 966.58C854.557 947.02 842.183 876.522 828.355 868.664Z" fill="#B5453C" style="fill:#B5453C;fill:color(display-p3 0.7098 0.2706 0.2353);fill-opacity:1;"/>
<path d="M828.509 969.893C828.634 969.95 816.39 976.307 807.179 973.789C798.515 971.427 792.855 960.192 792.974 960.167C796.643 959.438 797.701 954.396 797.623 932.73L799.282 933.057L827.171 938.578C827.171 938.578 826.537 947.356 826.518 955.624C826.498 962.568 826.919 969.152 828.509 969.893Z" fill="#FFB27D" style="fill:#FFB27D;fill:color(display-p3 1.0000 0.6980 0.4902);fill-opacity:1;"/>
<path d="M827.171 938.579C827.171 938.579 826.537 947.356 826.518 955.624C810.912 955.185 802.663 940.948 799.283 933.057L827.171 938.579Z" fill="#ED975D" style="fill:#ED975D;fill:color(display-p3 0.9294 0.5922 0.3647);fill-opacity:1;"/>
<path d="M796.402 930.02C796.402 930.02 788.223 917.098 786.26 906.048C784.859 898.159 788.877 868.918 818.261 873.129C818.261 873.129 826.796 873.97 834.818 879.389C841.198 883.698 850.405 893 840.111 918.517L837.437 927.137L796.402 930.02Z" fill="#B5453C" style="fill:#B5453C;fill:color(display-p3 0.7098 0.2706 0.2353);fill-opacity:1;"/>
<path d="M832.383 946.409C832.383 946.409 795.459 947.017 795.433 924.017C795.408 901.017 790.625 885.605 814.199 884.244C837.773 882.883 842.363 891.654 844.239 899.329C846.115 907.004 841.987 945.657 832.383 946.409Z" fill="#FFB27D" style="fill:#FFB27D;fill:color(display-p3 1.0000 0.6980 0.4902);fill-opacity:1;"/>
<path d="M831.016 883.68C831.016 883.68 820.906 910.664 805.391 914.654C789.876 918.644 783.146 914.487 783.146 914.487C783.146 914.487 795.047 905.033 797.517 888.53C797.517 888.53 823.39 870.837 831.016 883.68Z" fill="#B5453C" style="fill:#B5453C;fill:color(display-p3 0.7098 0.2706 0.2353);fill-opacity:1;"/>
<path d="M828.511 885.871C828.511 885.871 836.061 891.894 837.902 897.752C839.743 903.609 840.57 915.666 844.085 915.256C844.085 915.256 851.702 896.915 843.142 886.54C834.064 875.538 828.511 885.871 828.511 885.871Z" fill="#B5453C" style="fill:#B5453C;fill:color(display-p3 0.7098 0.2706 0.2353);fill-opacity:1;"/>
<path d="M746.287 1069.23C742.646 1053.96 755.034 1024.33 767.966 999.791C779.7 977.556 791.88 959.518 792.974 960.166C823.921 978.534 826.718 963.263 826.718 963.263L826.719 963.266C826.731 963.268 854.832 966.996 862.79 980.698C872.663 997.699 883.331 1045.2 893.925 1054.2C892.298 1059.17 892.996 1061.83 894.72 1068C895.091 1069.32 895.497 1070.58 895.947 1071.77C897.544 1076.11 899.542 1079.63 901.266 1082.69C895.88 1085.96 885.48 1092.19 877.817 1087.71C866.135 1080.87 857.022 1060.06 851.891 1051.77C851.872 1051.74 851.853 1051.71 851.834 1051.68C840.685 1114.79 855.845 1129.17 848.17 1135.82C840.066 1142.85 828.487 1132.47 803.016 1143.51C786.309 1150.76 763.125 1161.24 747.518 1163.06C739.333 1164.02 733.225 1162.6 731.234 1157.07C725.447 1141.01 753.234 1098.34 746.287 1069.23Z" fill="#1C468A" style="fill:#1C468A;fill:color(display-p3 0.1098 0.2745 0.5412);fill-opacity:1;"/>
<path d="M824.174 932.465C824.174 932.465 824.862 935.387 832.131 934.937C832.131 934.937 838.234 934.56 838.048 931.348C838.048 931.348 832.13 929.064 824.174 932.465Z" fill="white" style="fill:white;fill-opacity:1;"/>
<path d="M731.236 1157.07C733.227 1162.6 739.335 1164.02 747.52 1163.06C758.322 1158.36 804.987 1140.28 804.465 1128.03C803.69 1109.89 795.492 1109.31 801.281 1086.93C805.929 1068.95 762.812 1035.53 755.934 1028.27C743.002 1052.8 742.645 1053.96 746.286 1069.23C753.234 1098.34 725.447 1141.01 731.236 1157.07Z" fill="#163560" style="fill:#163560;fill:color(display-p3 0.0863 0.2078 0.3765);fill-opacity:1;"/>
<path d="M725.961 1091.66C734.236 1080.04 742.858 1073.89 748.529 1070.8C747.224 1067.44 783.338 1023.16 783.338 1016.3C783.338 1009.36 792.974 960.164 792.974 960.164C792.974 960.164 762.883 962.022 752.464 976.552C739.433 994.723 712.372 1064.66 725.961 1091.66Z" fill="#1C468A" style="fill:#1C468A;fill:color(display-p3 0.1098 0.2745 0.5412);fill-opacity:1;"/>
<path d="M748.529 1070.8L808.663 1086.49L803.019 1096.62C803.019 1096.62 729.839 1096.11 725.962 1091.66C722.083 1087.2 748.529 1070.8 748.529 1070.8Z" fill="#FFB27D" style="fill:#FFB27D;fill:color(display-p3 1.0000 0.6980 0.4902);fill-opacity:1;"/>
<path d="M851.892 1051.77C857.022 1060.06 866.136 1080.87 877.818 1087.71C885.481 1092.19 895.881 1085.96 901.267 1082.69C899.543 1079.63 897.545 1076.11 895.948 1071.77C891.65 1072.75 886.404 1074.01 883.022 1075.03C876.44 1077.02 851.892 1051.77 851.892 1051.77Z" fill="#163560" style="fill:#163560;fill:color(display-p3 0.0863 0.2078 0.3765);fill-opacity:1;"/>
<path d="M808.662 1086.49C808.662 1086.49 827.545 1081.15 832.043 1082.4C836.541 1083.65 851.952 1093.85 849.786 1096.62C847.619 1099.39 834.042 1094.96 827.795 1095.8C821.548 1096.64 816.716 1099.72 812.218 1099.06C807.72 1098.39 803.017 1096.62 803.017 1096.62L808.662 1086.49Z" fill="#FFB27D" style="fill:#FFB27D;fill:color(display-p3 1.0000 0.6980 0.4902);fill-opacity:1;"/>
<path d="M808.662 1086.49C808.662 1086.49 817.901 1081.74 820.529 1079.04C820.861 1078.7 821.422 1078.77 821.677 1079.18C822.381 1080.29 823.04 1082.43 819.799 1084.56C815.135 1087.63 808.662 1086.49 808.662 1086.49Z" fill="#FFB27D" style="fill:#FFB27D;fill:color(display-p3 1.0000 0.6980 0.4902);fill-opacity:1;"/>
<path d="M895.93 1113.06H807.829C807.829 1109.18 810.973 1106.04 814.852 1106.04H895.93V1113.06Z" fill="#ED7D2B" style="fill:#ED7D2B;fill:color(display-p3 0.9294 0.4902 0.1686);fill-opacity:1;"/>
<path d="M895.678 1017.11H1031.89L999.217 1113.06H862.122L895.678 1017.11Z" fill="#ED7D2B" style="fill:#ED7D2B;fill:color(display-p3 0.9294 0.4902 0.1686);fill-opacity:1;"/>
<path d="M1033.9 1017.11L1001.22 1113.06H864.13L897.683 1017.11H1033.9Z" fill="#F99746" style="fill:#F99746;fill:color(display-p3 0.9765 0.5922 0.2745);fill-opacity:1;"/>
<path d="M960.458 1064.2C959.611 1067.86 955.954 1070.84 952.288 1070.84C948.622 1070.84 946.336 1067.86 947.183 1064.2C948.029 1060.53 951.687 1057.56 955.353 1057.56C959.019 1057.56 961.304 1060.53 960.458 1064.2Z" fill="#F9DDBF" style="fill:#F9DDBF;fill:color(display-p3 0.9765 0.8667 0.7490);fill-opacity:1;"/>
<path d="M1033.9 1017.11L1001.22 1113.06H910.432C970.573 1092.53 986.582 1029.94 989.267 1017.11H1033.9Z" fill="#ED893E" style="fill:#ED893E;fill:color(display-p3 0.9294 0.5373 0.2431);fill-opacity:1;"/>
<path d="M638.456 1406.64C640.179 1406.64 641.652 1405.43 641.946 1403.78L659.054 1306.81L683.661 1167.35L690.542 1128.35L673.015 1127.85L669.974 1150.49L648.622 1309.58L635.963 1403.88C635.77 1405.34 636.938 1406.64 638.456 1406.64Z" fill="#95C0F4" style="fill:#95C0F4;fill:color(display-p3 0.5843 0.7529 0.9569);fill-opacity:1;"/>
<path d="M669.975 1150.49C681.331 1155.5 683.662 1167.35 683.662 1167.35L690.543 1128.35L673.016 1127.85L669.975 1150.49Z" fill="#78ACEA" style="fill:#78ACEA;fill:color(display-p3 0.4706 0.6745 0.9176);fill-opacity:1;"/>
<path d="M1074.4 1406.64C1072.68 1406.64 1071.21 1405.43 1070.91 1403.78L1053.8 1306.81L1029.2 1167.35L1022.32 1128.35L1039.84 1127.85L1042.88 1150.49L1064.24 1309.58L1076.89 1403.88C1077.09 1405.34 1075.92 1406.64 1074.4 1406.64Z" fill="#95C0F4" style="fill:#95C0F4;fill:color(display-p3 0.5843 0.7529 0.9569);fill-opacity:1;"/>
<path d="M1042.88 1150.49C1031.53 1155.5 1029.2 1167.35 1029.2 1167.35L1022.32 1128.35L1039.84 1127.85L1042.88 1150.49Z" fill="#78ACEA" style="fill:#78ACEA;fill:color(display-p3 0.4706 0.6745 0.9176);fill-opacity:1;"/>
<path d="M626.762 1143.66H1075.6C1081.48 1143.66 1086.29 1138.85 1086.29 1132.97V1123.73C1086.29 1117.85 1081.48 1113.04 1075.6 1113.04H626.762C620.882 1113.04 616.072 1117.85 616.072 1123.73V1132.97C616.072 1138.85 620.883 1143.66 626.762 1143.66Z" fill="#78ACEA" style="fill:#78ACEA;fill:color(display-p3 0.4706 0.6745 0.9176);fill-opacity:1;"/>
<path d="M2641.85 1405.72H2.99699C1.34899 1405.72 0 1404.37 0 1402.72V1401.7C0 1400.05 1.34899 1398.7 2.99699 1398.7H2641.85C2643.49 1398.7 2644.84 1400.05 2644.84 1401.7V1402.72C2644.84 1404.37 2643.49 1405.72 2641.85 1405.72Z" fill="#2E3552" style="fill:#2E3552;fill:color(display-p3 0.1804 0.2078 0.3216);fill-opacity:1;"/>
<path d="M1741.61 1096.72C1741.61 1096.72 1729.96 1111.17 1733.6 1113.13C1737.24 1115.1 1746.86 1118.79 1749.13 1116.46C1751.4 1114.14 1752.11 1097.12 1752.11 1097.12L1741.61 1096.72Z" fill="#FFB27D" style="fill:#FFB27D;fill:color(display-p3 1.0000 0.6980 0.4902);fill-opacity:1;"/>
<path d="M1742.08 1096.96C1742.08 1096.96 1737.32 1098.61 1735.45 1101.09C1733.57 1103.57 1729.43 1107.34 1730.45 1108.39C1731.46 1109.44 1737.41 1104.81 1737.41 1104.81L1742.08 1096.96Z" fill="#FFB27D" style="fill:#FFB27D;fill:color(display-p3 1.0000 0.6980 0.4902);fill-opacity:1;"/>
<path d="M1785.62 903.893C1785.62 903.893 1772.5 1026.06 1771.33 1029.54C1771.07 1030.3 1770.05 1034.16 1768.6 1039.73C1766.53 1047.68 1763.61 1059.09 1760.84 1069.95C1756.67 1086.35 1752.83 1101.49 1752.83 1101.49L1741.44 1097.74C1741.44 1097.74 1740.85 1038.37 1743.78 1024.7C1746.72 1011.02 1756.09 927.028 1760.82 915.724C1765.55 904.419 1785.62 903.893 1785.62 903.893Z" fill="#AEC3FF" style="fill:#AEC3FF;fill:color(display-p3 0.6824 0.7647 1.0000);fill-opacity:1;"/>
<path d="M1758.33 1196.85L1686.76 1178.08C1677.44 1175.64 1671.82 1166.02 1674.26 1156.7L1682.4 1125.69C1684.84 1116.37 1694.46 1110.75 1703.78 1113.19L1775.35 1131.96C1784.66 1134.41 1790.29 1144.03 1787.85 1153.34L1779.71 1184.36C1777.27 1193.67 1767.65 1199.3 1758.33 1196.85Z" fill="#A02E2E" style="fill:#A02E2E;fill:color(display-p3 0.6275 0.1804 0.1804);fill-opacity:1;"/>
<path d="M1691.84 1128.14L1683.61 1159.52C1682.02 1165.59 1683.84 1171.79 1687.88 1176.07C1689.21 1177.48 1690.79 1178.69 1692.58 1179.61C1692.58 1179.61 1692.58 1179.61 1692.59 1179.61L1692.59 1179.61C1693.7 1180.19 1694.89 1180.65 1696.15 1180.98L1767.6 1199.71C1776.95 1202.16 1786.6 1196.52 1789.06 1187.17L1797.29 1155.79C1799.74 1146.44 1794.09 1136.79 1784.74 1134.34L1760.14 1127.89L1761.9 1121.19C1762.71 1118.1 1760.85 1114.92 1757.76 1114.11L1755.06 1113.41L1740.1 1109.48L1736.38 1108.51C1734.89 1108.11 1733.32 1108.33 1731.99 1109.11C1730.64 1109.89 1729.69 1111.15 1729.3 1112.64L1727.54 1119.34L1713.29 1115.6C1712.73 1115.45 1712.17 1115.33 1711.61 1115.24C1711.6 1115.25 1711.6 1115.24 1711.59 1115.24L1711.59 1115.24C1705.86 1114.33 1700.19 1116.36 1696.29 1120.31L1696.29 1120.31C1694.21 1122.42 1692.64 1125.08 1691.84 1128.14ZM1756.63 1126.96L1731.06 1120.26L1732.82 1113.57C1733.12 1112.42 1734.31 1111.72 1735.46 1112.02L1741.88 1113.71L1753.66 1116.79L1756.84 1117.63C1757.06 1117.69 1757.25 1117.78 1757.44 1117.89C1758.22 1118.38 1758.63 1119.34 1758.38 1120.27L1756.63 1126.96Z" fill="#BC3F3F" style="fill:#BC3F3F;fill:color(display-p3 0.7373 0.2471 0.2471);fill-opacity:1;"/>
<path d="M1748.41 1116.79C1748.41 1116.79 1751.59 1111.43 1750.4 1109.56C1749.21 1107.7 1744.92 1115.11 1744.92 1115.11C1744.92 1115.11 1747.85 1108.75 1746.75 1107.7C1745.66 1106.65 1741.17 1113.97 1741.17 1113.97C1741.17 1113.97 1743.97 1107.78 1742.99 1107.57C1742.01 1107.36 1738.68 1112.77 1738.68 1112.77C1738.68 1112.77 1740.41 1108.14 1738.83 1108.36C1737.25 1108.59 1733.82 1112.81 1733.82 1112.81L1748.41 1116.79Z" fill="#FFB27D" style="fill:#FFB27D;fill:color(display-p3 1.0000 0.6980 0.4902);fill-opacity:1;"/>
<path d="M1768.59 1039.73C1766.53 1047.68 1763.61 1059.1 1760.84 1069.95C1759.06 1064.93 1756.79 1056.94 1755.36 1045.99C1752.72 1025.77 1760.82 982.699 1760.82 982.699L1768.59 1039.73Z" fill="#9DB0F4" style="fill:#9DB0F4;fill:color(display-p3 0.6157 0.6902 0.9569);fill-opacity:1;"/>
<path d="M1918.73 1091.7C1918.73 1091.7 1931.41 1102.01 1932.98 1105.23C1934.55 1108.45 1938.5 1120.37 1938.29 1124.21C1938.08 1128.05 1928.56 1115.41 1925.77 1114.4C1922.98 1113.38 1928.69 1119.58 1928.05 1120.91C1927.4 1122.25 1921.45 1117.9 1919.18 1116.48C1916.91 1115.05 1915.32 1105.41 1911.93 1100.17C1908.55 1094.92 1918.73 1091.7 1918.73 1091.7Z" fill="#FFB27D" style="fill:#FFB27D;fill:color(display-p3 1.0000 0.6980 0.4902);fill-opacity:1;"/>
<path d="M1752.22 1400.34H1815.49C1820.02 1397.26 1814.26 1367.21 1814.26 1367.21C1814.26 1367.21 1797 1360.66 1794.02 1373.98C1791.03 1387.29 1772.02 1391.53 1761.97 1393.15C1755.09 1394.27 1752.91 1398.05 1752.22 1400.34Z" fill="#233862" style="fill:#233862;fill:color(display-p3 0.1373 0.2196 0.3843);fill-opacity:1;"/>
<path d="M1846.05 1400.34H1909.31C1913.85 1397.26 1908.09 1367.21 1908.09 1367.21C1908.09 1367.21 1890.83 1360.66 1887.84 1373.98C1884.85 1387.29 1865.85 1391.53 1855.79 1393.15C1848.91 1394.27 1846.74 1398.05 1846.05 1400.34Z" fill="#233862" style="fill:#233862;fill:color(display-p3 0.1373 0.2196 0.3843);fill-opacity:1;"/>
<path d="M1769.24 1093.75C1769.24 1093.75 1772.09 1129.22 1775.43 1171.87C1779.97 1229.8 1792.22 1373.43 1792.22 1373.43C1792.22 1373.43 1800.26 1380.29 1818.05 1376.54C1818.05 1376.54 1833.19 1326.99 1837.72 1270.43C1837.79 1269.51 1837.86 1268.57 1837.93 1267.64C1842.14 1210.07 1848.7 1088.83 1848.7 1088.83L1769.24 1093.75Z" fill="#2B478B" style="fill:#2B478B;fill:color(display-p3 0.1686 0.2784 0.5451);fill-opacity:1;"/>
<path d="M1768.27 1081.49C1768.27 1081.49 1772.09 1129.22 1775.43 1171.87L1837.72 1270.43C1837.79 1269.51 1837.86 1268.57 1837.93 1267.64C1842.14 1210.07 1848.7 1088.83 1848.7 1088.83L1768.27 1081.49Z" fill="#233862" style="fill:#233862;fill:color(display-p3 0.1373 0.2196 0.3843);fill-opacity:1;"/>
<path d="M1786.43 1081.49C1786.43 1081.49 1831.61 1193.94 1846.05 1236.57C1856.34 1266.94 1885.35 1373.46 1885.35 1373.46C1885.35 1373.46 1897.97 1377.3 1908.57 1369.87C1908.57 1369.87 1919.37 1261.05 1897.56 1230.36C1885.99 1214.08 1894.69 1061.12 1847.79 1059.81C1800.88 1058.5 1786.43 1081.49 1786.43 1081.49Z" fill="#2B478B" style="fill:#2B478B;fill:color(display-p3 0.1686 0.2784 0.5451);fill-opacity:1;"/>
<path d="M1872.52 1091.7C1853.68 1102.33 1772.98 1102.09 1769.25 1093.75C1760.9 1075.12 1758.8 980.466 1762.74 951.432C1762.74 951.432 1764.78 906.812 1769.25 908.782C1799.05 895.087 1847.3 907.524 1847.3 907.524C1860.31 911.357 1859.2 941.086 1862.83 982.832C1863.29 988.212 1863.81 993.819 1864.39 999.612C1866.96 1025.39 1870.69 1055.01 1876.37 1086.25C1876.75 1088.31 1875.32 1090.12 1872.52 1091.7Z" fill="#AEC3FF" style="fill:#AEC3FF;fill:color(display-p3 0.6824 0.7647 1.0000);fill-opacity:1;"/>
<path d="M1825.01 902.504C1824.51 910.485 1814.1 909.58 1801.58 906.723C1789.08 903.875 1793.6 896.492 1793.6 896.492C1793.6 896.492 1793.79 890.822 1794.58 884.027C1794.87 881.557 1795.23 878.928 1795.7 876.38C1795.92 875.132 1796.17 873.901 1796.45 872.714C1798.09 865.691 1821.45 872.468 1821.28 874.359C1820.83 879.455 1824.52 896.237 1825.01 902.504Z" fill="#FFB27D" style="fill:#FFB27D;fill:color(display-p3 1.0000 0.6980 0.4902);fill-opacity:1;"/>
<path d="M1798.18 916.432L1797.2 905.407L1811.05 908.021L1805.72 917.865L1798.18 916.432Z" fill="#233862" style="fill:#233862;fill:color(display-p3 0.1373 0.2196 0.3843);fill-opacity:1;"/>
<path d="M1793.9 891.301L1785.62 903.891C1785.62 903.891 1785.62 911.635 1792.81 917.255L1804.12 906.714C1804.12 906.714 1796.81 903.922 1793.9 891.301Z" fill="#9DB0F4" style="fill:#9DB0F4;fill:color(display-p3 0.6157 0.6902 0.9569);fill-opacity:1;"/>
<path d="M1804.12 906.714C1804.12 906.714 1806.47 915.132 1811 918.995C1811 918.995 1828.68 914.243 1832.89 905.188L1823.68 893.304C1823.68 893.304 1823.24 902.294 1804.12 906.714Z" fill="#9DB0F4" style="fill:#9DB0F4;fill:color(display-p3 0.6157 0.6902 0.9569);fill-opacity:1;"/>
<path d="M1821.41 878.322C1821.41 878.322 1810.16 885.802 1794.58 884.027C1794.87 881.557 1795.23 878.928 1795.7 876.38C1798.78 875.633 1801.36 875.167 1801.36 875.167L1821.41 878.322Z" fill="#E2915A" style="fill:#E2915A;fill:color(display-p3 0.8863 0.5686 0.3529);fill-opacity:1;"/>
<path d="M1828.56 869.822C1823.06 884.957 1802.99 881.093 1794.45 878.663C1792.04 877.982 1790.55 877.414 1790.55 877.414C1787.91 876.216 1787.09 871.607 1787.32 865.787C1787.78 854.267 1792.33 838.004 1794.94 834.084C1798.87 828.188 1805.42 822.191 1824.88 830.541C1844.35 838.894 1835.61 850.431 1828.56 869.822Z" fill="#FFB27D" style="fill:#FFB27D;fill:color(display-p3 1.0000 0.6980 0.4902);fill-opacity:1;"/>
<path d="M1843.59 862.051C1837.44 867.062 1824.25 876.335 1824.25 876.335C1824.25 876.335 1825.72 874.599 1827.51 869.597C1827.72 869.029 1827.78 868.198 1827.75 867.316C1827.68 864.863 1828.27 862.415 1829.56 860.326C1830.36 859.02 1830.65 857.666 1829.63 856.707C1827.97 855.128 1825.12 856.578 1823.25 857.856C1822.02 858.699 1820.4 858.748 1819.14 857.96C1819.13 857.955 1819.12 857.95 1819.11 857.945C1813.86 854.658 1819.66 848.865 1815.39 844.056C1811.12 839.248 1792.66 838.588 1793.4 835.574C1787.1 832.013 1791.07 818.872 1791.19 818.178C1791.19 818.178 1800.23 818.978 1811.53 816.157C1820.69 813.854 1830.8 819.744 1834 822.17C1834 821.59 1833.91 820.781 1833.49 819.929C1833.49 819.929 1834.88 821.3 1834.86 822.9C1835 823.041 1835.06 823.137 1835.01 823.164C1835.01 823.164 1836.84 823.129 1837.91 823.832C1837.91 823.832 1837.12 823.586 1836.76 824.052C1836.71 824.105 1836.66 824.14 1836.6 824.175C1848.87 832.841 1848.69 857.884 1843.59 862.051Z" fill="#233862" style="fill:#233862;fill:color(display-p3 0.1373 0.2196 0.3843);fill-opacity:1;"/>
<path d="M1799.53 867.635C1799.53 867.635 1798.55 869.541 1793.59 867.96C1793.59 867.96 1789.42 866.634 1790.11 864.439C1790.11 864.439 1794.61 863.888 1799.53 867.635Z" fill="white" style="fill:white;fill-opacity:1;"/>
<path d="M1798.18 916.432C1798.18 916.432 1787.13 1056.12 1787.29 1067.75C1787.44 1079.39 1799.53 1091.7 1799.53 1091.7C1799.53 1091.7 1809.17 1081.15 1811.05 1070.01C1812.93 1058.88 1805.72 917.864 1805.72 917.864L1798.18 916.432Z" fill="#2A4E96" style="fill:#2A4E96;fill:color(display-p3 0.1647 0.3059 0.5882);fill-opacity:1;"/>
<path d="M1847.31 907.527C1847.31 907.527 1865.15 911.798 1879.26 938.897C1893.36 965.996 1904.51 1020.65 1911.24 1035.08C1917.98 1049.51 1922.59 1094.93 1922.59 1094.93L1911.93 1100.17C1911.93 1100.17 1886.19 1053.61 1882.38 1038.34C1880.31 1030.08 1848.84 963.944 1848.84 963.944L1847.31 907.527Z" fill="#AEC3FF" style="fill:#AEC3FF;fill:color(display-p3 0.6824 0.7647 1.0000);fill-opacity:1;"/>
<path d="M1872.52 1091.7C1872.51 1091.7 1872.51 1091.7 1872.5 1091.7C1838.91 1086.86 1848.53 975.667 1851.17 975.226C1853.81 974.787 1863.47 995.101 1863.47 995.101L1864.39 999.611C1866.96 1025.39 1870.69 1055.01 1876.37 1086.25C1876.75 1088.3 1875.32 1090.12 1872.52 1091.7Z" fill="#9DB0F4" style="fill:#9DB0F4;fill:color(display-p3 0.6157 0.6902 0.9569);fill-opacity:1;"/>
<path d="M2291.72 1334.61C2291.72 1334.61 2305.71 1347.38 2302.98 1356.45C2300.25 1365.52 2287.62 1371.56 2285.92 1382.65C2284.21 1393.74 2277.39 1399.79 2271.24 1399.79C2265.1 1399.79 2241.96 1399.79 2241.96 1399.79C2241.96 1399.79 2237.44 1391.98 2248.36 1389.63C2259.28 1387.28 2263.4 1374.25 2262.72 1362.16C2262.03 1350.06 2263.74 1333.94 2263.74 1333.94L2286.94 1328.56L2291.72 1334.61Z" fill="#233862" style="fill:#233862;fill:color(display-p3 0.1373 0.2196 0.3843);fill-opacity:1;"/>
<path d="M2120.09 1367.63C2120.09 1367.63 2122.6 1396.68 2116.46 1399.71L2037.86 1399.55C2037.86 1399.55 2037.86 1390.47 2050.49 1388.46C2063.11 1386.44 2085.29 1379.05 2089.04 1362.59C2092.8 1346.13 2120.09 1367.63 2120.09 1367.63Z" fill="#233862" style="fill:#233862;fill:color(display-p3 0.1373 0.2196 0.3843);fill-opacity:1;"/>
<path d="M2053.74 957.212C2053.74 957.212 2057.88 1008.14 2062.75 1069.36C2069.38 1152.52 2077.34 1254.67 2078.13 1274.02C2079.49 1307.63 2084.96 1361.38 2084.96 1361.38C2084.96 1361.38 2097.92 1374.15 2123.85 1368.76C2123.85 1368.76 2146.96 1292.03 2153.57 1210.85C2153.67 1209.52 2153.77 1208.18 2153.88 1206.84C2160.02 1124.19 2169.57 950.156 2169.57 950.156L2053.74 957.212Z" fill="#2A4E96" style="fill:#2A4E96;fill:color(display-p3 0.1647 0.3059 0.5882);fill-opacity:1;"/>
<path d="M2053.74 957.212C2053.74 957.212 2057.88 1008.14 2062.75 1069.36L2153.57 1210.85C2153.67 1209.52 2153.77 1208.18 2153.88 1206.84C2160.02 1124.19 2169.57 950.155 2169.57 950.155L2053.74 957.212Z" fill="#233862" style="fill:#233862;fill:color(display-p3 0.1373 0.2196 0.3843);fill-opacity:1;"/>
<path d="M2072.67 963.26C2072.67 963.26 2147.39 1147.7 2196.52 1234.38C2245.65 1321.06 2261.01 1345.25 2261.01 1345.25C2261.01 1345.25 2289.16 1334.16 2291.72 1326.6C2291.72 1326.6 2272.93 1159.27 2240.02 1118.47C2221.43 1095.42 2205.4 1044.29 2206.2 1020.09C2207.59 978.358 2191.92 929.999 2191.92 929.999L2072.67 963.26Z" fill="#2A4E96" style="fill:#2A4E96;fill:color(display-p3 0.1647 0.3059 0.5882);fill-opacity:1;"/>
<path d="M2013 965.97C2013 965.97 1999.04 984.862 1998.02 989.904C1996.99 994.947 1995.78 1012.95 1997.45 1018.21C1999.12 1023.48 2007.82 1002.49 2011.34 1000.07C2014.87 997.652 2009.14 1008.33 2010.51 1009.96C2011.89 1011.58 2018.61 1003.39 2021.25 1000.6C2023.9 997.807 2022.66 983.826 2025.48 975.314C2028.31 966.802 2013 965.97 2013 965.97Z" fill="#FFB27D" style="fill:#FFB27D;fill:color(display-p3 1.0000 0.6980 0.4902);fill-opacity:1;"/>
<path d="M2074.53 691.438C2074.53 691.438 2055.67 866.946 2053.99 871.947C2053.63 873.033 2052.15 878.59 2050.07 886.583C2047.1 897.999 2042.91 914.403 2038.93 929.999C2032.93 953.563 2026.45 973.94 2026.45 973.94C2026.45 973.94 2023.6 975.782 2016.73 975.196C2012.05 974.797 2009.52 970.796 2009.52 970.796C2009.52 970.796 2010.21 884.626 2014.42 864.989C2018.64 845.339 2032.1 724.676 2038.9 708.435C2045.7 692.196 2074.53 691.438 2074.53 691.438Z" fill="white" style="fill:white;fill-opacity:1;"/>
<path d="M2050.07 886.582C2047.1 897.998 2042.91 914.402 2038.93 929.998C2036.37 922.787 2033.11 911.309 2031.05 895.573C2027.26 866.528 2038.9 804.649 2038.9 804.649L2050.07 886.582Z" fill="#DCEAFF" style="fill:#DCEAFF;fill:color(display-p3 0.8627 0.9176 1.0000);fill-opacity:1;"/>
<path d="M2199.37 961.241C2172.31 976.509 2056.37 976.169 2051 964.184C2039 937.424 2036 801.443 2041.66 759.731C2041.66 759.731 2044.59 695.63 2051 698.458C2093.82 678.783 2163.14 696.652 2163.14 696.652C2181.83 702.158 2180.23 744.867 2185.44 804.839C2186.11 812.568 2186.86 820.625 2187.69 828.947C2191.38 865.985 2196.74 908.53 2204.9 953.411C2205.45 956.367 2203.39 958.981 2199.37 961.241Z" fill="white" style="fill:white;fill-opacity:1;"/>
<path d="M2131.12 689.443C2130.4 700.91 2115.44 699.609 2097.46 695.506C2079.49 691.414 2085.99 680.806 2085.99 680.806C2085.99 680.806 2086.26 672.66 2087.4 662.899C2087.81 659.351 2088.33 655.575 2089.01 651.913C2089.33 650.12 2089.68 648.352 2090.09 646.647C2092.44 636.557 2126 646.293 2125.76 649.008C2125.11 656.332 2130.41 680.439 2131.12 689.443Z" fill="#FFB27D" style="fill:#FFB27D;fill:color(display-p3 1.0000 0.6980 0.4902);fill-opacity:1;"/>
<path d="M2092.58 709.452L2091.16 693.613L2111.06 697.368L2103.4 711.509L2092.58 709.452Z" fill="#233862" style="fill:#233862;fill:color(display-p3 0.1373 0.2196 0.3843);fill-opacity:1;"/>
<path d="M2086.42 673.348L2074.53 691.434C2074.53 691.434 2074.53 702.561 2084.85 710.634L2101.11 695.491C2101.11 695.491 2090.59 691.481 2086.42 673.348Z" fill="#DCEAFF" style="fill:#DCEAFF;fill:color(display-p3 0.8627 0.9176 1.0000);fill-opacity:1;"/>
<path d="M2101.11 695.492C2101.11 695.492 2104.48 707.585 2110.99 713.135C2110.99 713.135 2136.38 706.307 2142.43 693.299L2129.21 676.228C2129.21 676.228 2128.57 689.141 2101.11 695.492Z" fill="#DCEAFF" style="fill:#DCEAFF;fill:color(display-p3 0.8627 0.9176 1.0000);fill-opacity:1;"/>
<path d="M2125.95 654.703C2125.95 654.703 2109.79 665.45 2087.4 662.898C2087.81 659.35 2088.33 655.574 2089.01 651.912C2093.43 650.838 2097.13 650.169 2097.13 650.169L2125.95 654.703Z" fill="#E2915A" style="fill:#E2915A;fill:color(display-p3 0.8863 0.5686 0.3529);fill-opacity:1;"/>
<path d="M2136.21 642.492C2128.31 664.235 2099.48 658.683 2087.2 655.193C2083.75 654.216 2081.61 653.398 2081.61 653.398C2077.81 651.677 2076.64 645.056 2076.97 636.694C2077.63 620.145 2084.16 596.78 2087.91 591.15C2093.56 582.678 2102.97 574.065 2130.93 586.06C2158.9 598.059 2146.34 614.635 2136.21 642.492Z" fill="#FFB27D" style="fill:#FFB27D;fill:color(display-p3 1.0000 0.6980 0.4902);fill-opacity:1;"/>
<path d="M2157.8 631.328C2148.98 638.526 2130.02 651.849 2130.02 651.849C2130.02 651.849 2132.13 649.355 2134.71 642.169C2135 641.352 2135.09 640.159 2135.05 638.892C2134.94 635.368 2135.79 631.85 2137.64 628.848C2138.8 626.973 2139.22 625.027 2137.76 623.649C2135.36 621.379 2131.27 623.463 2128.59 625.3C2126.82 626.511 2124.5 626.582 2122.67 625.451C2122.66 625.444 2122.65 625.437 2122.64 625.429C2115.1 620.706 2123.42 612.384 2117.3 605.476C2111.16 598.569 2084.64 597.622 2085.7 593.29C2076.65 588.175 2082.36 569.296 2082.52 568.298C2082.52 568.298 2095.51 569.447 2111.74 565.394C2124.91 562.085 2139.44 570.546 2144.03 574.032C2144.03 573.198 2143.89 572.037 2143.3 570.812C2143.3 570.812 2145.3 572.782 2145.26 575.08C2145.46 575.282 2145.55 575.421 2145.49 575.459C2145.49 575.459 2148.11 575.408 2149.64 576.418C2149.64 576.418 2148.52 576.064 2147.99 576.734C2147.92 576.81 2147.85 576.86 2147.76 576.911C2165.39 589.364 2165.13 625.342 2157.8 631.328Z" fill="#BC3F3F" style="fill:#BC3F3F;fill:color(display-p3 0.7373 0.2471 0.2471);fill-opacity:1;"/>
<path d="M2094.51 639.35C2094.51 639.35 2093.1 642.088 2085.97 639.817C2085.97 639.817 2079.98 637.911 2080.98 634.759C2080.98 634.759 2087.44 633.967 2094.51 639.35Z" fill="white" style="fill:white;fill-opacity:1;"/>
<path d="M2092.58 709.453C2092.58 709.453 2076.7 910.124 2076.92 926.844C2077.14 943.563 2094.52 961.242 2094.52 961.242C2094.52 961.242 2108.36 946.089 2111.06 930.093C2113.77 914.097 2103.4 711.511 2103.4 711.511L2092.58 709.453Z" fill="#2A4E96" style="fill:#2A4E96;fill:color(display-p3 0.1647 0.3059 0.5882);fill-opacity:1;"/>
<path d="M2199.37 961.241C2199.36 961.241 2199.36 961.241 2199.35 961.241C2151.08 954.296 2164.91 794.548 2168.7 793.917C2172.49 793.285 2186.36 822.47 2186.36 822.47L2187.69 828.949C2191.38 865.987 2196.74 908.532 2204.9 953.413C2205.45 956.367 2203.39 958.981 2199.37 961.241Z" fill="#DCEAFF" style="fill:#DCEAFF;fill:color(display-p3 0.8627 0.9176 1.0000);fill-opacity:1;"/>
<path d="M2341.26 1080.24L2239.19 1109.94C2225.91 1113.81 2211.88 1106.1 2208.01 1092.82L2195.14 1048.59C2191.27 1035.3 2198.98 1021.27 2212.26 1017.41L2314.33 987.705C2327.62 983.839 2341.65 991.545 2345.51 1004.83L2358.38 1049.06C2362.25 1062.34 2354.54 1076.37 2341.26 1080.24Z" fill="#A02E2E" style="fill:#A02E2E;fill:color(display-p3 0.6275 0.1804 0.1804);fill-opacity:1;"/>
<path d="M2208.59 1044.64L2221.61 1089.38C2224.13 1098.04 2230.95 1104.35 2239.08 1106.63C2241.77 1107.39 2244.61 1107.71 2247.49 1107.52C2247.5 1107.52 2247.5 1107.52 2247.5 1107.52L2247.51 1107.52C2249.3 1107.41 2251.11 1107.1 2252.91 1106.58L2354.79 1076.92C2368.12 1073.04 2375.86 1058.96 2371.98 1045.63L2358.96 1000.88C2355.08 987.55 2340.99 979.817 2327.66 983.695L2292.58 993.907L2289.81 984.36C2288.53 979.948 2283.89 977.41 2279.48 978.689L2275.63 979.807L2254.29 986.018L2248.99 987.563C2246.86 988.179 2245.09 989.602 2244.02 991.552C2242.95 993.508 2242.7 995.76 2243.32 997.888L2246.1 1007.43L2225.77 1013.34C2224.97 1013.58 2224.19 1013.85 2223.43 1014.15C2223.43 1014.16 2223.42 1014.16 2223.41 1014.16L2223.41 1014.16C2215.68 1017.27 2210.18 1023.96 2208.3 1031.7L2208.3 1031.71C2207.29 1035.84 2207.32 1040.28 2208.59 1044.64ZM2287.57 995.36L2251.11 1005.97L2248.33 996.428C2247.86 994.786 2248.8 993.055 2250.45 992.575L2259.61 989.912L2276.4 985.018L2280.93 983.703C2281.25 983.614 2281.56 983.577 2281.86 983.583C2283.19 983.606 2284.4 984.485 2284.79 985.819L2287.57 995.36Z" fill="#BC3F3F" style="fill:#BC3F3F;fill:color(display-p3 0.7373 0.2471 0.2471);fill-opacity:1;"/>
<path d="M2256.99 966.792C2256.99 966.792 2253.82 993.258 2259.76 992.878C2265.69 992.498 2280.21 989.651 2281.2 985.095C2282.19 980.538 2270.08 959.275 2270.08 959.275L2256.99 966.792Z" fill="#FFB27D" style="fill:#FFB27D;fill:color(display-p3 1.0000 0.6980 0.4902);fill-opacity:1;"/>
<path d="M2257.75 966.724C2257.75 966.724 2253.21 972.365 2252.82 976.806C2252.43 981.249 2250.26 989.004 2252.3 989.505C2254.33 990.006 2258.05 979.842 2258.05 979.842L2257.75 966.724Z" fill="#FFB27D" style="fill:#FFB27D;fill:color(display-p3 1.0000 0.6980 0.4902);fill-opacity:1;"/>
<path d="M2163.15 696.658C2163.15 696.658 2188.78 702.794 2209.05 741.724C2229.31 780.656 2245.32 859.174 2255 879.9C2264.67 900.625 2272.04 962.81 2272.04 962.81C2272.04 962.81 2270.52 965.9 2265.31 967.031C2261.26 967.908 2257.11 967.565 2257.11 967.565C2257.11 967.565 2219 906.517 2213.53 884.582C2210.57 872.714 2165.34 777.709 2165.34 777.709L2163.15 696.658Z" fill="white" style="fill:white;fill-opacity:1;"/>
<path d="M474.869 1374.45L471.028 1346.79L487.162 1333.3L492.245 1369.93L474.869 1374.45Z" fill="#FFB27D" style="fill:#FFB27D;fill:color(display-p3 1.0000 0.6980 0.4902);fill-opacity:1;"/>
<path d="M528.448 1399.16H462.67C462.67 1399.16 461.094 1389.14 464.529 1381.53C467.821 1374.23 472.944 1369.73 473.412 1364.14C477.592 1368.44 482.735 1371.21 492.244 1369.93C493.41 1371.82 499.765 1381.93 503.658 1384.72C507.957 1387.81 527.125 1386.71 528.448 1399.16Z" fill="#233862" style="fill:#233862;fill:color(display-p3 0.1373 0.2196 0.3843);fill-opacity:1;"/>
<path d="M515.232 1000.89C510.93 1035.5 507.413 1068.12 504.547 1098.53C489.238 1260.53 492.243 1359.55 492.243 1359.55C492.243 1359.55 491.137 1362.48 481.646 1362.53C476.282 1362.56 471.027 1361.39 471.027 1361.39C471.027 1361.39 436.753 1255.59 439.398 1195.39C439.713 1188.15 440.564 1181.57 442.073 1175.91C450.296 1145.11 411.646 1027.31 453.659 983.445C495.666 939.584 517.211 985.013 515.232 1000.89Z" fill="#F99746" style="fill:#F99746;fill:color(display-p3 0.9765 0.5922 0.2745);fill-opacity:1;"/>
<path d="M515.232 1000.89C510.93 1035.5 507.413 1068.12 504.547 1098.53L439.399 1195.39C439.714 1188.15 440.565 1181.57 442.074 1175.91C450.297 1145.11 411.647 1027.31 453.66 983.445C495.666 939.584 517.211 985.013 515.232 1000.89Z" fill="#ED7D2B" style="fill:#ED7D2B;fill:color(display-p3 0.9294 0.4902 0.1686);fill-opacity:1;"/>
<path d="M567.002 670.823C567.002 670.823 565.416 662.917 563.631 656.883C562.841 654.213 568.347 636.678 572.157 634.52C575.968 632.362 585.892 644.171 583.084 653.238C581.642 657.896 579.271 673.052 579.271 673.052L567.002 670.823Z" fill="#FFB27D" style="fill:#FFB27D;fill:color(display-p3 1.0000 0.6980 0.4902);fill-opacity:1;"/>
<path d="M567.002 670.823C567.002 670.823 564.93 666.239 563.06 665.496C561.189 664.753 559.185 657.257 557.811 654.285C557.811 654.285 559.137 652.34 561.458 654.842C562.875 656.368 566.03 660.842 566.03 660.842L567.002 670.823Z" fill="#FFB27D" style="fill:#FFB27D;fill:color(display-p3 1.0000 0.6980 0.4902);fill-opacity:1;"/>
<path d="M295.461 697.416C295.058 698.248 294.498 699.735 293.998 701.134C293.99 700.752 293.984 700.375 293.98 700.004C293.954 697.22 283.556 682.065 279.281 681.116C275.006 680.167 268.972 694.364 274.311 702.213C277.054 706.244 283.756 720.043 283.756 720.043L294.836 714.32C294.836 714.32 295.475 709.33 297.047 708.072C298.618 706.814 298.341 699.059 298.785 695.816C298.785 695.816 296.948 694.345 295.461 697.416Z" fill="#FFB27D" style="fill:#FFB27D;fill:color(display-p3 1.0000 0.6980 0.4902);fill-opacity:1;"/>
<path d="M364.555 1366.16C363.625 1357.29 363.395 1333.96 363.395 1333.96C363.395 1333.96 387.166 1326.36 386.291 1331.58C381.99 1357.23 383.157 1369.93 383.157 1369.93L373.544 1375.67L364.555 1366.16Z" fill="#FFB27D" style="fill:#FFB27D;fill:color(display-p3 1.0000 0.6980 0.4902);fill-opacity:1;"/>
<path d="M495.379 999.244C495.379 999.244 403.547 1250.97 385.47 1360.16C385.47 1360.16 381.282 1363.04 373.47 1362.08C364.61 1361 362.182 1354.85 362.182 1354.85C362.182 1354.85 345.592 1223.98 378.566 1178.54C401.22 1147.33 368.795 1010.24 421.558 999.244C474.323 988.252 495.379 999.244 495.379 999.244Z" fill="#F99746" style="fill:#F99746;fill:color(display-p3 0.9765 0.5922 0.2745);fill-opacity:1;"/>
<path d="M479.069 757.097C479.068 757.088 479.068 757.088 479.068 757.088C479.051 756.978 479.026 756.869 478.991 756.762C478.455 754.546 477.868 752.366 477.238 750.201C477.236 750.192 477.236 750.192 477.236 750.192C475.314 743.572 473.028 737.269 470.56 731.706C469.139 728.516 467.668 725.559 466.162 722.925C465.932 722.519 465.707 722.14 465.491 721.75L465.48 721.742C461.932 715.777 458.283 711.654 454.992 710.382C448.988 708.062 442.309 708.708 437.711 709.664C438.72 708.258 441.009 707.459 441.009 707.459C438.067 707.456 432.073 711.262 432.073 711.262C389.777 701.803 392.249 761.635 395.129 775.196C397.999 788.758 384.381 795.346 365.176 809.222C328.525 835.699 329.139 863.763 329.139 863.763C329.469 863.902 329.83 864.063 330.205 864.251C331.68 860.621 334.808 853.747 338.086 852.294C337.994 852.617 335.327 861.522 334.569 866.506C340.152 869.583 347.878 874.346 356.267 879.723C356.267 879.723 356.267 879.723 356.277 879.731C367.503 886.916 379.892 895.182 389.819 901.895C389.347 899.164 388.88 895.269 389.574 893.067L392.737 902.866L393.152 904.144C399.488 908.439 404.487 911.874 407.025 913.633C407.286 913.81 407.516 913.973 407.724 914.11C408.465 914.619 408.863 914.897 408.863 914.897C408.02 911.434 411.717 902.404 417.923 891.024C418.348 890.23 418.8 889.423 419.259 888.605C421.263 885.008 423.501 881.218 425.908 877.309C426.775 875.897 427.652 874.483 428.562 873.044C428.56 873.035 428.57 873.034 428.57 873.034C429.297 871.876 430.035 870.726 430.797 869.555L430.805 869.544C432.603 866.766 434.464 863.968 436.361 861.165C441.278 853.903 446.483 846.692 451.627 840.08C459.096 830.452 466.424 822.082 472.562 816.606C472.763 816.192 472.953 815.77 473.124 815.341C474.085 813.109 474.822 810.629 475.393 808.108C475.571 807.351 475.729 806.587 475.869 805.826C477.398 797.775 477.428 789.788 477.408 787.888C477.9 795.667 477.704 801.534 477.183 805.967C477.065 806.941 476.937 807.841 476.789 808.678L476.791 808.687C476.464 810.582 476.087 812.146 475.681 813.443C476.686 812.198 477.569 810.83 478.35 809.336C478.861 808.361 479.327 807.336 479.739 806.263C484.69 793.627 483.357 774.777 479.069 757.097Z" fill="#163560" style="fill:#163560;fill:color(display-p3 0.0863 0.2078 0.3765);fill-opacity:1;"/>
<path d="M471.122 817.709C471.264 817.75 459.281 826.424 449.116 825.205C439.556 824.066 431.78 813.047 431.903 813.001C435.679 811.649 436.006 806.136 432.506 783.171L434.316 783.256L464.763 784.713C464.763 784.713 465.474 794.121 466.759 802.893C467.834 810.258 469.32 817.174 471.122 817.709Z" fill="#FFB27D" style="fill:#FFB27D;fill:color(display-p3 1.0000 0.6980 0.4902);fill-opacity:1;"/>
<path d="M464.763 784.713C464.763 784.713 465.474 794.121 466.759 802.893C450.139 804.888 439.146 791.092 434.316 783.256L464.763 784.713Z" fill="#ED975D" style="fill:#ED975D;fill:color(display-p3 0.9294 0.5922 0.3647);fill-opacity:1;"/>
<path d="M430.782 780.491C430.782 780.491 420.071 768.077 416.246 756.669C413.515 748.524 413.163 716.88 444.99 716.711C444.99 716.711 454.174 716.256 463.535 720.736C470.981 724.299 482.213 732.713 475.32 761.397L473.843 770.96L430.782 780.491Z" fill="#163560" style="fill:#163560;fill:color(display-p3 0.0863 0.2078 0.3765);fill-opacity:1;"/>
<path d="M519.07 994.411C519.07 994.411 479.449 1017.96 429.704 1005.85C429.118 1005.71 388.743 999.263 388.743 999.263C389.437 997.365 394.655 966.175 395.337 964.43C404.162 941.656 420.291 818.052 433.767 811.954C437.208 815.702 447.042 818.267 455.459 817.519C465.151 816.663 468.397 812.475 467.592 807.971C478.318 813.042 486.559 817.756 486.559 817.756C496.361 832.448 519.07 994.411 519.07 994.411Z" fill="white" style="fill:white;fill-opacity:1;"/>
<path d="M471.526 792.195C471.526 792.195 432.464 798.665 428.809 774.278C425.154 749.889 417.651 734.3 442.437 729.137C467.222 723.975 473.474 732.553 476.673 740.397C479.872 748.24 481.592 789.882 471.526 792.195Z" fill="#FFB27D" style="fill:#FFB27D;fill:color(display-p3 1.0000 0.6980 0.4902);fill-opacity:1;"/>
<path d="M460.181 725.887C460.181 725.887 453.716 756.098 437.892 762.777C422.068 769.456 414.275 766.109 414.275 766.109C414.275 766.109 425.404 754.206 425.421 736.314C425.421 736.314 450.068 713.47 460.181 725.887Z" fill="#163560" style="fill:#163560;fill:color(display-p3 0.0863 0.2078 0.3765);fill-opacity:1;"/>
<path d="M457.869 728.606C457.869 728.606 466.826 733.803 469.702 739.724C472.578 745.645 475.358 758.301 479.02 757.312C479.02 757.312 484.204 736.661 473.49 727.007C462.13 716.772 457.869 728.606 457.869 728.606Z" fill="#163560" style="fill:#163560;fill:color(display-p3 0.0863 0.2078 0.3765);fill-opacity:1;"/>
<path d="M579.538 671.386C577.95 670.827 575.608 669.503 572.555 669.228C569.835 668.983 566.418 669.87 566.418 669.87C566.418 669.87 555.397 738.377 554.579 742.007C553.761 745.636 507.309 797.965 494.785 797.755C483.476 797.566 470.078 806.296 467.592 807.974C467.592 807.974 493.929 863.664 495.242 874.126C496.671 885.509 510.305 1060.8 510.305 1060.8C510.305 1060.8 509.494 1068.96 524.731 1064.57C539.967 1060.19 543.778 1056.56 543.778 1056.56C543.778 1056.56 529.782 918.559 526.846 875.642C526.452 869.88 525.512 864.548 524.173 859.629C522.882 854.886 523.9 849.814 526.795 845.841C546.059 819.397 576.479 776.554 578.174 767.448C580.662 754.068 579.538 671.386 579.538 671.386Z" fill="#2B478B" style="fill:#2B478B;fill:color(display-p3 0.1686 0.2784 0.5451);fill-opacity:1;"/>
<path d="M419.361 1399.16H353.583C353.583 1399.16 352.006 1389.14 355.442 1381.53C358.734 1374.23 363.857 1369.73 364.325 1364.14C368.505 1368.44 373.648 1371.21 383.158 1369.93C384.323 1371.82 390.679 1381.93 394.572 1384.72C398.869 1387.81 418.036 1386.71 419.361 1399.16Z" fill="#233862" style="fill:#233862;fill:color(display-p3 0.1373 0.2196 0.3843);fill-opacity:1;"/>
<path d="M464.546 879.534C462.33 865.892 434.026 811.117 434.026 811.117C434.026 811.117 416.133 805.765 404.357 810.032C392.581 814.298 331.65 779.895 329.697 776.729C327.744 773.561 295.109 712.75 295.109 712.75C295.109 712.75 292.403 711.183 288.067 713.442C283.778 715.677 283.758 720.044 283.758 720.044C283.758 720.044 308.945 796.609 315.646 808.454C319.687 815.597 353.659 840.463 379.998 859.083C385.027 862.639 387.668 868.692 386.842 874.796C383.3 900.978 382.399 915.722 378.326 960.65C374.947 997.92 373.654 1070.07 373.654 1070.07C373.654 1070.07 403.129 1080.27 423.47 1081.63C443.812 1082.98 448.245 1061.54 448.245 1061.54C448.245 1061.54 466.824 893.56 464.546 879.534Z" fill="#2B478B" style="fill:#2B478B;fill:color(display-p3 0.1686 0.2784 0.5451);fill-opacity:1;"/>
<path d="M458.725 780.137C458.725 780.137 463.471 782.923 469.074 782.083C472.913 781.508 473.784 776.954 473.784 776.954C473.784 776.954 471.116 776.113 466.858 776.969C462.601 777.824 458.725 780.137 458.725 780.137Z" fill="white" style="fill:white;fill-opacity:1;"/>
<path d="M1706.38 315.234C1706.38 315.234 1688.1 282.752 1706.38 276.145C1724.66 269.538 1732.93 275.631 1733.8 283.03C1734.67 290.428 1726.84 319.587 1726.84 319.587L1706.38 315.234Z" fill="#FFB27D" style="fill:#FFB27D;fill:color(display-p3 1.0000 0.6980 0.4902);fill-opacity:1;"/>
<path d="M1721.03 522.976C1687.7 528.982 1657.07 531.768 1629.41 532.386C1603.16 532.978 1579.61 531.611 1558.99 529.218C1553.45 528.583 1548.13 527.869 1543.02 527.094C1489.07 518.912 1459.27 504.403 1459.27 504.403C1459.27 504.403 1508.57 401.206 1548.39 405.167C1595.12 409.824 1674.29 451.751 1682.16 439.992C1691.02 426.744 1698.44 313.129 1698.44 313.129C1719.15 298.941 1731.52 313.895 1731.52 313.895C1731.52 313.895 1771.99 513.785 1721.03 522.976Z" fill="#F99746" style="fill:#F99746;fill:color(display-p3 0.9765 0.5922 0.2745);fill-opacity:1;"/>
<path d="M1721.03 522.977C1687.7 528.983 1657.07 531.769 1629.41 532.387C1603.16 532.979 1579.61 531.612 1558.99 529.219C1546.56 489.685 1537.62 449.306 1562.62 473.652C1606.72 516.588 1721.03 522.977 1721.03 522.977Z" fill="#ED7D2B" style="fill:#ED7D2B;fill:color(display-p3 0.9294 0.4902 0.1686);fill-opacity:1;"/>
<path d="M1455.53 1356.2C1455.53 1356.2 1451.98 1397.22 1460.66 1401.49L1571.64 1401.26C1571.64 1401.26 1571.64 1388.45 1553.81 1385.61C1535.99 1382.76 1504.67 1372.32 1499.37 1349.08C1494.07 1325.83 1455.53 1356.2 1455.53 1356.2Z" fill="#233862" style="fill:#233862;fill:color(display-p3 0.1373 0.2196 0.3843);fill-opacity:1;"/>
<path d="M1537.01 859.671C1536.46 886.497 1535.17 914.167 1532.65 939.035C1520.66 1057.04 1516.45 1199.61 1514.73 1227.1C1511.74 1274.82 1502.31 1351.05 1502.31 1351.05C1502.31 1351.05 1483.62 1368.79 1447.17 1360.32C1447.17 1360.32 1416.98 1250.53 1410.23 1134.92C1410.13 1133.03 1410.02 1131.12 1409.93 1129.21C1409.14 1113.93 1408.33 1096.45 1407.49 1077.61C1401.94 951.377 1395.9 763.863 1395.9 763.863L1535.17 731.162C1535.17 731.162 1538.37 792.797 1537.01 859.671Z" fill="#2A4E96" style="fill:#2A4E96;fill:color(display-p3 0.1647 0.3059 0.5882);fill-opacity:1;"/>
<path d="M1537.01 859.671C1501.71 920.565 1434.44 1032.75 1407.49 1077.61C1401.94 951.378 1395.9 763.864 1395.9 763.864L1535.17 731.163C1535.17 731.163 1538.37 792.797 1537.01 859.671Z" fill="#233862" style="fill:#233862;fill:color(display-p3 0.1373 0.2196 0.3843);fill-opacity:1;"/>
<path d="M1184.38 741.712C1184.38 741.712 1161.72 768.362 1159.68 775.751C1157.64 783.14 1154.01 809.765 1155.96 817.764C1157.9 825.764 1172.97 795.457 1178.45 792.22C1183.93 788.984 1174.33 804.274 1176.21 806.826C1178.08 809.378 1188.9 797.9 1193.12 794.017C1197.34 790.133 1196.92 769.231 1201.99 756.871C1207.06 744.51 1184.38 741.712 1184.38 741.712Z" fill="#FFB27D" style="fill:#FFB27D;fill:color(display-p3 1.0000 0.6980 0.4902);fill-opacity:1;"/>
<path d="M1179.06 1309.57C1179.06 1309.57 1159.31 1327.6 1163.17 1340.41C1167.02 1353.22 1184.85 1361.75 1187.25 1377.41C1189.66 1393.06 1199.3 1401.6 1207.97 1401.6C1216.64 1401.6 1249.32 1401.6 1249.32 1401.6C1249.32 1401.6 1255.7 1390.59 1240.28 1387.26C1224.87 1383.94 1219.05 1365.55 1220.02 1348.47C1220.98 1331.39 1218.57 1308.62 1218.57 1308.62L1185.81 1301.03L1179.06 1309.57Z" fill="#233862" style="fill:#233862;fill:color(display-p3 0.1373 0.2196 0.3843);fill-opacity:1;"/>
<path d="M1513.23 766.722C1513.23 766.722 1382.86 1045.66 1313.48 1168.05C1244.1 1290.44 1222.42 1324.6 1222.42 1324.6C1222.42 1324.6 1182.68 1308.94 1179.06 1298.27C1179.06 1298.27 1205.59 1061.99 1252.05 1004.39C1278.31 971.843 1309.14 874.171 1310.59 840.015C1312.03 805.86 1342.49 724.337 1342.49 724.337L1513.23 766.722Z" fill="#2A4E96" style="fill:#2A4E96;fill:color(display-p3 0.1647 0.3059 0.5882);fill-opacity:1;"/>
<path d="M1551.34 779.875C1551.34 779.875 1499.5 814.536 1426.12 811.317C1393.92 809.91 1330.04 800.78 1319.73 775.171C1317.31 769.158 1319.09 761.527 1322.72 749.815C1332.14 719.374 1354.11 661.407 1347.47 532.879C1346.86 520.922 1347.19 509.677 1348.34 499.15C1355.25 435.842 1391.53 398.35 1426.6 386.1C1512.12 356.209 1540.63 397.621 1540.63 397.621C1540.63 397.621 1578.43 427.57 1584.13 490.073C1595.52 615.095 1551.34 779.875 1551.34 779.875Z" fill="#F99746" style="fill:#F99746;fill:color(display-p3 0.9765 0.5922 0.2745);fill-opacity:1;"/>
<path d="M1451.66 378.919C1451.66 378.919 1490.9 402.786 1533.46 396.037C1533.46 396.037 1541.87 393.897 1537.74 384.019C1540.33 376.047 1540.02 376.765 1541.52 370.84C1545.25 357.206 1546.39 349.34 1546.39 349.34L1522.24 323.953L1499.36 299.693C1493.04 357.677 1451.66 378.919 1451.66 378.919Z" fill="#FFB27D" style="fill:#FFB27D;fill:color(display-p3 1.0000 0.6980 0.4902);fill-opacity:1;"/>
<path d="M1495.69 321.684C1495.69 321.684 1508.84 356.817 1541.52 370.841C1545.25 357.207 1547.68 342.944 1547.68 342.944L1522.24 323.954L1495.69 321.684Z" fill="#ED985F" style="fill:#ED985F;fill:color(display-p3 0.9294 0.5961 0.3725);fill-opacity:1;"/>
<path d="M1573.49 348.114C1573.49 348.114 1498.58 357.477 1493.33 311.447C1488.07 265.418 1474.86 235.627 1522.46 227.702C1570.06 219.778 1581.38 236.322 1586.93 251.269C1592.48 266.218 1592.84 344.492 1573.49 348.114Z" fill="#FFB27D" style="fill:#FFB27D;fill:color(display-p3 1.0000 0.6980 0.4902);fill-opacity:1;"/>
<path d="M1469.68 220.22C1469.03 219.42 1467.5 218.736 1464.04 218.415C1464.04 218.415 1466.87 216.786 1470.59 216.834C1471.49 212.038 1474.38 203.597 1482.76 201.836C1482.76 201.836 1478.21 204.045 1477.43 209.152C1487.42 199.64 1508.3 193.231 1565.18 199.892C1640.14 208.67 1613.54 255.873 1603.59 261.244C1593.64 266.615 1569.73 249.955 1551.54 250.709C1533.35 251.462 1528.91 277.539 1522.62 280.902C1516.34 284.266 1519 277.999 1510.81 273.921C1502.63 269.843 1501.32 283.608 1503.38 292.667C1505.45 301.727 1493.56 313.124 1493.56 313.124C1493.56 313.124 1493.56 313.124 1482.48 300.239C1471.39 287.354 1462.49 234.216 1468.17 223.176C1468.67 222.201 1469.17 221.212 1469.68 220.22Z" fill="#2C3A64" style="fill:#2C3A64;fill:color(display-p3 0.1725 0.2275 0.3922);fill-opacity:1;"/>
<path d="M1698.44 293.687L1571.27 294.819L1570.41 275.69L1697.17 265.866L1698.44 293.687Z" fill="#2A4E96" style="fill:#2A4E96;fill:color(display-p3 0.1647 0.3059 0.5882);fill-opacity:1;"/>
<path d="M1794.42 296.881L1655.98 298.883L1654.4 264.102L1792.45 253.405L1794.42 296.881Z" fill="#2A4E96" style="fill:#2A4E96;fill:color(display-p3 0.1647 0.3059 0.5882);fill-opacity:1;"/>
<path d="M1887.78 299.611L1771.03 299.756L1768.9 252.802L1885.17 242.223L1887.78 299.611Z" fill="#233862" style="fill:#233862;fill:color(display-p3 0.1373 0.2196 0.3843);fill-opacity:1;"/>
<path d="M1889.45 307.537C1893.05 307.373 1895.84 304.321 1895.67 300.72L1892.93 240.404C1892.77 236.802 1889.72 234.015 1886.12 234.179C1882.51 234.343 1879.73 237.395 1879.89 240.997L1882.63 301.312C1882.79 304.913 1885.85 307.701 1889.45 307.537Z" fill="#233862" style="fill:#233862;fill:color(display-p3 0.1373 0.2196 0.3843);fill-opacity:1;"/>
<path d="M1570.88 298.903C1567.68 299.049 1564.97 296.571 1564.82 293.37L1564.11 277.719C1563.96 274.517 1566.44 271.804 1569.64 271.659C1572.84 271.514 1575.56 273.991 1575.7 277.192L1576.41 292.843C1576.56 296.045 1574.08 298.758 1570.88 298.903Z" fill="#2A4E96" style="fill:#2A4E96;fill:color(display-p3 0.1647 0.3059 0.5882);fill-opacity:1;"/>
<path d="M1322.72 749.816C1332.14 719.375 1354.11 661.408 1347.48 532.88C1346.86 520.923 1347.19 509.678 1348.34 499.151L1348.35 499.152C1376.49 496.733 1419.51 527.159 1419.51 527.159C1419.51 527.159 1393.02 688.694 1322.72 749.816Z" fill="#ED7D2B" style="fill:#ED7D2B;fill:color(display-p3 0.9294 0.4902 0.1686);fill-opacity:1;"/>
<path d="M1451.66 378.919C1451.66 378.919 1379.49 391.324 1341.85 437.275C1304.21 483.226 1243.66 548.018 1229.35 570.706C1215.03 593.395 1175.29 747.803 1175.29 747.803C1175.29 747.803 1177.91 752.767 1188.88 755.657C1199.36 758.422 1206.98 754.135 1206.98 754.135C1206.98 754.135 1259.63 664.026 1279.44 619.01C1287.68 600.307 1430.06 526.238 1483.59 533.912C1504.62 536.926 1451.66 378.919 1451.66 378.919Z" fill="#F99746" style="fill:#F99746;fill:color(display-p3 0.9765 0.5922 0.2745);fill-opacity:1;"/>
<path d="M1697.68 260.388C1697.68 260.388 1713.2 269.883 1722.49 265.866C1731.77 261.849 1730.95 258.171 1730.95 258.171C1730.95 258.171 1702.9 250.388 1697.68 260.388Z" fill="#FFB27D" style="fill:#FFB27D;fill:color(display-p3 1.0000 0.6980 0.4902);fill-opacity:1;"/>
<path d="M1521.69 429.26C1521.69 429.26 1490.01 629.215 1265.3 687.431L1240.83 735.725L1283.83 743.002C1283.83 743.002 1539.65 668.889 1536.21 425.724L1521.69 429.26Z" fill="#BC3F3F" style="fill:#BC3F3F;fill:color(display-p3 0.7373 0.2471 0.2471);fill-opacity:1;"/>
<path d="M1516.78 397.343L1506.4 398.359V413.373L1521.69 429.259L1536.22 425.723V404.887L1525.77 397.343H1516.78Z" fill="#A02E2E" style="fill:#A02E2E;fill:color(display-p3 0.6275 0.1804 0.1804);fill-opacity:1;"/>
<path d="M1476.08 357.581C1476.08 357.581 1466.04 359.846 1443.08 378.92C1443.08 378.92 1465.91 427.375 1514.07 433.178C1514.07 433.178 1513.3 410.691 1516.78 397.344C1516.78 397.344 1478.6 383.68 1476.08 357.581Z" fill="#ED7D2B" style="fill:#ED7D2B;fill:color(display-p3 0.9294 0.4902 0.1686);fill-opacity:1;"/>
<path d="M1516.78 397.344C1516.78 397.344 1540.28 409.82 1542.02 429.26C1542.02 429.26 1551 415.027 1548.4 405.171C1545.79 395.314 1537.74 384.021 1537.74 384.021C1537.74 384.021 1538.54 395.893 1516.78 397.344Z" fill="#ED7D2B" style="fill:#ED7D2B;fill:color(display-p3 0.9294 0.4902 0.1686);fill-opacity:1;"/>
</svg>
