<svg width="322" height="76" viewBox="0 0 322 76" fill="none" xmlns="http://www.w3.org/2000/svg">
<path d="M66.927 0.576C69.4443 0.576 71.535 0.512001 73.199 0.384003C73.199 1.87733 73.0923 3.008 72.879 3.776C71.855 3.81867 71.0657 4.11734 70.511 4.672C69.999 5.184 69.615 6.08 69.359 7.36C69.1457 8.64 69.039 10.4747 69.039 12.864V43.84C68.1003 44.1387 66.8843 44.288 65.391 44.288L40.239 11.072V31.296C40.239 33.7707 40.367 35.6693 40.623 36.992C40.879 38.272 41.327 39.1893 41.967 39.744C42.6497 40.2987 43.6097 40.5973 44.847 40.64C45.103 41.408 45.231 42.5387 45.231 44.032C43.311 43.904 41.071 43.84 38.511 43.84C35.439 43.84 33.135 43.904 31.599 44.032C31.599 42.5813 31.7057 41.4507 31.919 40.64C33.1563 40.5973 34.095 40.2987 34.735 39.744C35.4177 39.1893 35.887 38.272 36.143 36.992C36.4417 35.6693 36.591 33.7707 36.591 31.296V6.272L36.143 5.696C35.5883 5.01333 35.0337 4.544 34.479 4.288C33.967 4.032 33.1137 3.86134 31.919 3.776C31.7057 2.88 31.599 1.74934 31.599 0.384003C32.9643 0.512001 34.8843 0.576 37.359 0.576C39.4497 0.576 41.1563 0.512001 42.479 0.384003L65.327 30.976V12.864C65.327 10.432 65.199 8.59734 64.943 7.36C64.687 6.08 64.2177 5.184 63.535 4.672C62.895 4.11734 61.935 3.81867 60.655 3.776C60.399 2.58133 60.271 1.45067 60.271 0.384003C62.1483 0.512001 64.367 0.576 66.927 0.576Z" fill="white" style="fill:white;fill-opacity:1;"/>
<path d="M106.825 34.176C108.574 34.432 109.833 34.944 110.601 35.712C109.833 37.7173 109.257 40.448 108.873 43.904L95.7525 43.84C88.9685 43.84 83.7418 43.8827 80.0725 43.968C80.0725 42.3467 80.2005 41.1947 80.4565 40.512C81.5232 40.4267 82.3125 40.256 82.8245 40C83.3365 39.7013 83.6992 39.2107 83.9125 38.528C84.1258 37.8453 84.2325 36.7787 84.2325 35.328V20.16C84.2325 18.7947 84.1258 17.792 83.9125 17.152C83.6992 16.4693 83.3152 16 82.7605 15.744C82.2485 15.488 81.4592 15.296 80.3925 15.168C80.1792 14.3573 80.0725 13.2053 80.0725 11.712C83.6565 11.7973 87.5818 11.84 91.8485 11.84C99.0592 11.84 104.243 11.7973 107.4 11.712C107.699 15.4667 108.104 18.1973 108.617 19.904C107.422 20.4587 106.163 20.736 104.84 20.736C104.584 18.9013 103.838 17.5147 102.601 16.576C101.406 15.6373 99.2725 15.168 96.2005 15.168H91.9125V26.368H94.4085C96.3712 26.368 97.7152 26.1333 98.4405 25.664C99.2085 25.152 99.5925 24.256 99.5925 22.976C100.616 22.6347 101.811 22.464 103.176 22.464C103.048 24 102.984 25.8133 102.984 27.904C102.984 30.208 103.048 32.064 103.176 33.472C101.683 33.472 100.531 33.3227 99.7205 33.024C99.6352 31.744 99.2085 30.8693 98.4405 30.4C97.7152 29.9307 96.3712 29.696 94.4085 29.696H91.9125V35.136C91.9125 36.5867 92.0405 37.696 92.2965 38.464C92.5525 39.1893 93.0218 39.7227 93.7045 40.064C94.3872 40.3627 95.3898 40.512 96.7125 40.512H97.2885C99.3792 40.512 101.022 40.2987 102.216 39.872C103.411 39.4453 104.329 38.8053 104.969 37.952C105.651 37.056 106.27 35.7973 106.825 34.176Z" fill="white" style="fill:white;fill-opacity:1;"/>
<path d="M152.495 40.64C152.752 41.4507 152.88 42.5813 152.88 44.032C151.301 43.904 148.613 43.84 144.816 43.84L139.439 43.904C138.629 43.9467 137.647 43.968 136.495 43.968C136.495 42.7733 136.602 41.664 136.816 40.64C137.584 40.5973 138.16 40.4907 138.544 40.32C138.97 40.1067 139.184 39.7653 139.184 39.296C139.184 38.3147 138.287 36.6293 136.495 34.24L133.68 30.72L129.904 35.008C128.965 36.0747 128.282 36.9067 127.855 37.504C127.471 38.1013 127.28 38.6133 127.28 39.04C127.28 39.8507 128.197 40.384 130.031 40.64C130.287 41.4933 130.415 42.624 130.415 44.032C128.495 43.904 126.298 43.84 123.824 43.84C121.136 43.84 119.024 43.904 117.488 44.032C117.488 42.496 117.637 41.3653 117.936 40.64C119.045 40.3413 120.175 39.744 121.327 38.848C122.522 37.952 123.93 36.6507 125.551 34.944L131.695 28.352L126.511 22.272C126.213 21.888 125.914 21.5467 125.616 21.248C125.36 20.9493 125.146 20.672 124.976 20.416L123.824 19.072C122.373 17.3653 121.392 16.2987 120.88 15.872C120.368 15.4453 119.642 15.1467 118.703 14.976C118.447 14.1653 118.32 13.056 118.32 11.648C120.24 11.776 123.162 11.84 127.088 11.84C130.245 11.84 132.72 11.776 134.512 11.648C134.512 12.672 134.405 13.7813 134.191 14.976C133.423 15.0613 132.848 15.232 132.464 15.488C132.122 15.7013 131.952 16.0213 131.952 16.448C131.952 17.1307 132.592 18.304 133.872 19.968L137.52 24.256L140.784 20.416C142.106 18.7947 142.768 17.536 142.768 16.64C142.768 15.6587 141.957 15.104 140.335 14.976C140.122 14.1653 140.016 13.056 140.016 11.648C141.893 11.776 143.962 11.84 146.223 11.84C148.741 11.84 150.703 11.776 152.111 11.648C152.111 13.184 152.026 14.2933 151.855 14.976C150.49 15.4027 149.402 15.936 148.592 16.576C147.824 17.1733 146.629 18.432 145.008 20.352L139.632 26.752C142.32 29.952 144.303 32.384 145.583 34.048L147.184 36.096C148.506 37.8453 149.466 39.0187 150.064 39.616C150.704 40.1707 151.514 40.512 152.495 40.64Z" fill="white" style="fill:white;fill-opacity:1;"/>
<path d="M191.671 11.712C191.543 14.4 191.799 17.3227 192.439 20.48C191.372 20.9493 190.007 21.184 188.342 21.184C188.129 19.0507 187.553 17.5147 186.615 16.576C185.676 15.6373 184.204 15.168 182.199 15.168H179.831V35.52C179.831 36.9707 179.937 38.0373 180.15 38.72C180.406 39.4027 180.855 39.872 181.495 40.128C182.177 40.384 183.222 40.5547 184.63 40.64C184.929 41.3653 185.079 42.4747 185.079 43.968C182.007 43.8827 179.063 43.84 176.247 43.84C172.791 43.84 169.569 43.8827 166.583 43.968C166.583 43.4133 166.625 42.816 166.71 42.176C166.796 41.536 166.903 41.024 167.031 40.64C168.439 40.5547 169.484 40.384 170.167 40.128C170.892 39.872 171.404 39.4027 171.702 38.72C172.001 37.9947 172.15 36.928 172.15 35.52V15.168H170.103C168.524 15.168 167.287 15.3813 166.391 15.808C165.537 16.2347 164.876 16.8747 164.406 17.728C163.937 18.5387 163.532 19.6907 163.191 21.184C161.441 21.184 160.14 20.9707 159.286 20.544C159.585 19.2213 159.841 17.728 160.055 16.064C160.268 14.4 160.374 12.9493 160.374 11.712C162.934 11.7973 168.161 11.84 176.055 11.84C183.948 11.84 189.153 11.7973 191.671 11.712Z" fill="white" style="fill:white;fill-opacity:1;"/>
<path d="M219.088 44.416C214.779 44.416 211.003 43.4987 207.76 41.664C204.517 39.7867 202 37.1413 200.208 33.728C198.459 30.3147 197.584 26.304 197.584 21.696C197.584 17.1307 198.587 13.2267 200.592 9.984C202.64 6.69867 205.349 4.224 208.72 2.56C212.133 0.853334 215.888 0 219.984 0C222.843 0 225.595 0.277334 228.24 0.832001C230.928 1.38667 233.275 2.13334 235.28 3.072C234.811 5.504 234.576 8.81067 234.576 12.992C233.552 13.4613 232.144 13.696 230.352 13.696C230.181 9.77067 229.243 7.06134 227.536 5.568C225.829 4.032 223.397 3.264 220.24 3.264C217.125 3.264 214.501 4.05334 212.368 5.632C210.235 7.168 208.656 9.23734 207.632 11.84C206.608 14.4 206.096 17.216 206.096 20.288C206.096 24.1707 206.629 27.6693 207.696 30.784C208.805 33.856 210.427 36.288 212.56 38.08C214.693 39.8293 217.253 40.704 220.24 40.704C221.392 40.704 222.373 40.6613 223.184 40.576C223.995 40.448 224.784 40.2347 225.552 39.936C226.32 39.6373 226.853 39.168 227.152 38.528C227.493 37.8453 227.664 36.736 227.664 35.2V32.256C227.664 30.4213 227.536 29.12 227.28 28.352C227.024 27.584 226.555 27.072 225.872 26.816C225.189 26.5173 224.037 26.3467 222.416 26.304C222.16 25.4507 222.032 24.2773 222.032 22.784C223.269 22.912 225.979 22.976 230.16 22.976C234.299 22.976 236.944 22.9333 238.096 22.848C238.096 24.3413 237.968 25.4933 237.712 26.304C236.859 26.3467 236.24 26.496 235.856 26.752C235.472 27.008 235.216 27.52 235.088 28.288C234.96 29.0133 234.896 30.2507 234.896 32V34.496C234.896 35.6907 234.939 36.672 235.024 37.44C235.152 38.1653 235.408 38.8693 235.792 39.552C233.787 41.0027 231.333 42.176 228.432 43.072C225.573 43.968 222.459 44.416 219.088 44.416Z" fill="white" style="fill:white;fill-opacity:1;"/>
<path d="M272.699 34.176C274.449 34.432 275.707 34.944 276.475 35.712C275.707 37.7173 275.131 40.448 274.747 43.904L261.628 43.84C254.844 43.84 249.617 43.8827 245.947 43.968C245.947 42.3467 246.075 41.1947 246.331 40.512C247.398 40.4267 248.187 40.256 248.699 40C249.211 39.7013 249.574 39.2107 249.788 38.528C250.001 37.8453 250.107 36.7787 250.107 35.328V20.16C250.107 18.7947 250.001 17.792 249.788 17.152C249.574 16.4693 249.19 16 248.635 15.744C248.123 15.488 247.334 15.296 246.268 15.168C246.054 14.3573 245.947 13.2053 245.947 11.712C249.531 11.7973 253.457 11.84 257.723 11.84C264.934 11.84 270.118 11.7973 273.276 11.712C273.574 15.4667 273.98 18.1973 274.492 19.904C273.297 20.4587 272.038 20.736 270.716 20.736C270.46 18.9013 269.713 17.5147 268.475 16.576C267.281 15.6373 265.148 15.168 262.076 15.168H257.788V26.368H260.284C262.246 26.368 263.59 26.1333 264.315 25.664C265.083 25.152 265.467 24.256 265.467 22.976C266.491 22.6347 267.686 22.464 269.052 22.464C268.924 24 268.859 25.8133 268.859 27.904C268.859 30.208 268.924 32.064 269.052 33.472C267.558 33.472 266.406 33.3227 265.595 33.024C265.51 31.744 265.083 30.8693 264.315 30.4C263.59 29.9307 262.246 29.696 260.284 29.696H257.788V35.136C257.788 36.5867 257.916 37.696 258.172 38.464C258.428 39.1893 258.897 39.7227 259.579 40.064C260.262 40.3627 261.265 40.512 262.587 40.512H263.164C265.254 40.512 266.897 40.2987 268.091 39.872C269.286 39.4453 270.204 38.8053 270.844 37.952C271.526 37.056 272.145 35.7973 272.699 34.176Z" fill="white" style="fill:white;fill-opacity:1;"/>
<path d="M315.491 11.84C317.325 11.84 319.181 11.7973 321.059 11.712C321.059 13.248 320.973 14.4 320.802 15.168C319.864 15.2533 319.16 15.488 318.69 15.872C318.221 16.2133 317.88 16.8533 317.667 17.792C317.496 18.688 317.41 20.0533 317.41 21.888V43.84C316.685 44.1387 315.533 44.288 313.954 44.288L292.194 20.16V33.728C292.194 35.5627 292.301 36.9493 292.514 37.888C292.77 38.784 293.176 39.424 293.73 39.808C294.328 40.192 295.202 40.4267 296.354 40.512C296.568 41.3653 296.674 42.5173 296.674 43.968C294.456 43.8827 292.429 43.84 290.595 43.84C288.291 43.84 286.2 43.8827 284.323 43.968C284.323 42.4747 284.451 41.3227 284.707 40.512C285.816 40.4267 286.648 40.192 287.203 39.808C287.8 39.424 288.205 38.784 288.418 37.888C288.674 36.9493 288.802 35.5627 288.802 33.728V16.384L288.674 16.256C288.333 15.872 287.907 15.616 287.395 15.488C286.883 15.36 285.987 15.2533 284.707 15.168C284.451 14.3573 284.323 13.2053 284.323 11.712C285.944 11.7973 287.757 11.84 289.763 11.84C291.384 11.84 293.005 11.7973 294.626 11.712L313.954 33.6V21.888C313.954 20.0533 313.826 18.688 313.57 17.792C313.357 16.896 312.952 16.2773 312.354 15.936C311.8 15.552 310.904 15.296 309.667 15.168C309.496 14.1867 309.41 13.0347 309.41 11.712C311.544 11.7973 313.571 11.84 315.491 11.84Z" fill="white" style="fill:white;fill-opacity:1;"/>
<path d="M190.848 59.864C190.635 60.76 190.528 61.976 190.528 63.512C190.123 63.7253 189.461 63.832 188.544 63.832C188.501 62.5947 188.16 61.6987 187.52 61.144C186.88 60.5893 185.973 60.312 184.8 60.312C182.901 60.312 181.483 60.8667 180.544 61.976C179.627 63.0853 179.168 64.472 179.168 66.136C179.168 67.4373 179.413 68.6 179.904 69.624C180.416 70.648 181.163 71.4587 182.144 72.056C183.147 72.6533 184.341 72.952 185.728 72.952C187.435 72.952 189.056 72.6 190.592 71.896C190.741 72.024 190.869 72.2053 190.976 72.44C191.104 72.6533 191.189 72.8773 191.232 73.112C190.123 73.7307 189.035 74.2107 187.968 74.552C186.901 74.8933 185.696 75.064 184.352 75.064C182.56 75.064 180.96 74.712 179.552 74.008C178.144 73.304 177.045 72.3227 176.256 71.064C175.488 69.8053 175.104 68.376 175.104 66.776C175.104 65.048 175.541 63.576 176.416 62.36C177.312 61.1227 178.485 60.1947 179.936 59.576C181.387 58.936 182.955 58.616 184.64 58.616C186.688 58.616 188.757 59.032 190.848 59.864Z" fill="white" style="fill:white;fill-opacity:1;"/>
<path d="M203.918 75.128C202.041 75.128 200.388 74.7867 198.958 74.104C197.55 73.4213 196.452 72.4613 195.662 71.224C194.894 69.9867 194.51 68.536 194.51 66.872C194.51 65.2293 194.905 63.7893 195.694 62.552C196.484 61.2933 197.593 60.3227 199.022 59.64C200.473 58.9573 202.148 58.616 204.046 58.616C205.902 58.616 207.545 58.9467 208.974 59.608C210.404 60.2693 211.502 61.2187 212.27 62.456C213.06 63.672 213.454 65.1013 213.454 66.744C213.454 68.3867 213.06 69.848 212.27 71.128C211.481 72.3867 210.361 73.368 208.91 74.072C207.481 74.776 205.817 75.128 203.918 75.128ZM204.334 73.4C205.892 73.4 207.108 72.8453 207.982 71.736C208.878 70.6267 209.326 69.1227 209.326 67.224C209.326 65.8587 209.081 64.6533 208.59 63.608C208.1 62.5627 207.417 61.752 206.542 61.176C205.689 60.6 204.697 60.312 203.566 60.312C202.03 60.312 200.825 60.856 199.95 61.944C199.076 63.0107 198.638 64.4827 198.638 66.36C198.638 67.7253 198.873 68.9413 199.342 70.008C199.833 71.0747 200.505 71.9067 201.358 72.504C202.233 73.1013 203.225 73.4 204.334 73.4Z" fill="white" style="fill:white;fill-opacity:1;"/>
<path d="M233.011 58.84C233.928 58.84 234.856 58.8187 235.795 58.776C235.795 59.544 235.752 60.12 235.667 60.504C235.198 60.5467 234.846 60.664 234.611 60.856C234.376 61.0267 234.206 61.3467 234.099 61.816C234.014 62.264 233.971 62.9467 233.971 63.864V74.84C233.608 74.9893 233.032 75.064 232.243 75.064L221.363 63V69.784C221.363 70.7013 221.416 71.3947 221.523 71.864C221.651 72.312 221.854 72.632 222.131 72.824C222.43 73.016 222.867 73.1333 223.443 73.176C223.55 73.6027 223.603 74.1787 223.603 74.904C222.494 74.8613 221.48 74.84 220.563 74.84C219.411 74.84 218.366 74.8613 217.427 74.904C217.427 74.1573 217.491 73.5813 217.619 73.176C218.174 73.1333 218.59 73.016 218.867 72.824C219.166 72.632 219.368 72.312 219.475 71.864C219.603 71.3947 219.667 70.7013 219.667 69.784V61.112L219.603 61.048C219.432 60.856 219.219 60.728 218.963 60.664C218.707 60.6 218.259 60.5467 217.619 60.504C217.491 60.0987 217.427 59.5227 217.427 58.776C218.238 58.8187 219.144 58.84 220.147 58.84C220.958 58.84 221.768 58.8187 222.579 58.776L232.243 69.72V63.864C232.243 62.9467 232.179 62.264 232.051 61.816C231.944 61.368 231.742 61.0587 231.443 60.888C231.166 60.696 230.718 60.568 230.099 60.504C230.014 60.0133 229.971 59.4373 229.971 58.776C231.038 58.8187 232.051 58.84 233.011 58.84Z" fill="white" style="fill:white;fill-opacity:1;"/>
<path d="M255.792 58.84C256.71 58.84 257.638 58.8187 258.576 58.776C258.576 59.544 258.534 60.12 258.448 60.504C257.979 60.5467 257.627 60.664 257.392 60.856C257.158 61.0267 256.987 61.3467 256.88 61.816C256.795 62.264 256.752 62.9467 256.752 63.864V74.84C256.39 74.9893 255.814 75.064 255.024 75.064L244.144 63V69.784C244.144 70.7013 244.198 71.3947 244.304 71.864C244.432 72.312 244.635 72.632 244.912 72.824C245.211 73.016 245.648 73.1333 246.224 73.176C246.331 73.6027 246.384 74.1787 246.384 74.904C245.275 74.8613 244.262 74.84 243.344 74.84C242.192 74.84 241.147 74.8613 240.208 74.904C240.208 74.1573 240.272 73.5813 240.4 73.176C240.955 73.1333 241.371 73.016 241.648 72.824C241.947 72.632 242.15 72.312 242.256 71.864C242.384 71.3947 242.448 70.7013 242.448 69.784V61.112L242.384 61.048C242.214 60.856 242 60.728 241.744 60.664C241.488 60.6 241.04 60.5467 240.4 60.504C240.272 60.0987 240.208 59.5227 240.208 58.776C241.019 58.8187 241.926 58.84 242.928 58.84C243.739 58.84 244.55 58.8187 245.36 58.776L255.024 69.72V63.864C255.024 62.9467 254.96 62.264 254.832 61.816C254.726 61.368 254.523 61.0587 254.224 60.888C253.947 60.696 253.499 60.568 252.88 60.504C252.795 60.0133 252.752 59.4373 252.752 58.776C253.819 58.8187 254.832 58.84 255.792 58.84Z" fill="white" style="fill:white;fill-opacity:1;"/>
<path d="M276.366 70.008C277.24 70.136 277.87 70.392 278.254 70.776C277.87 71.7787 277.581 73.144 277.389 74.872L270.829 74.84C267.437 74.84 264.824 74.8613 262.99 74.904C262.99 74.0933 263.053 73.5173 263.181 73.176C263.715 73.1333 264.11 73.048 264.366 72.92C264.622 72.7707 264.803 72.5253 264.909 72.184C265.016 71.8427 265.069 71.3093 265.069 70.584V63C265.069 62.3173 265.016 61.816 264.909 61.496C264.803 61.1547 264.611 60.92 264.333 60.792C264.077 60.664 263.683 60.568 263.15 60.504C263.043 60.0987 262.99 59.5227 262.99 58.776C264.782 58.8187 266.744 58.84 268.878 58.84C272.483 58.84 275.075 58.8187 276.654 58.776C276.803 60.6533 277.006 62.0187 277.262 62.872C276.664 63.1493 276.035 63.288 275.374 63.288C275.246 62.3707 274.872 61.6773 274.254 61.208C273.656 60.7387 272.589 60.504 271.053 60.504H268.909V66.104H270.158C271.139 66.104 271.811 65.9867 272.173 65.752C272.557 65.496 272.75 65.048 272.75 64.408C273.262 64.2373 273.859 64.152 274.542 64.152C274.478 64.92 274.445 65.8267 274.445 66.872C274.445 68.024 274.478 68.952 274.542 69.656C273.795 69.656 273.219 69.5813 272.814 69.432C272.771 68.792 272.557 68.3547 272.173 68.12C271.811 67.8853 271.139 67.768 270.158 67.768H268.909V70.488C268.909 71.2133 268.974 71.768 269.102 72.152C269.23 72.5147 269.464 72.7813 269.806 72.952C270.147 73.1013 270.648 73.176 271.31 73.176H271.598C272.643 73.176 273.464 73.0693 274.061 72.856C274.659 72.6427 275.117 72.3227 275.438 71.896C275.779 71.448 276.088 70.8187 276.366 70.008Z" fill="white" style="fill:white;fill-opacity:1;"/>
<path d="M297.473 59.864C297.26 60.76 297.153 61.976 297.153 63.512C296.748 63.7253 296.086 63.832 295.169 63.832C295.126 62.5947 294.785 61.6987 294.145 61.144C293.505 60.5893 292.598 60.312 291.425 60.312C289.526 60.312 288.108 60.8667 287.169 61.976C286.252 63.0853 285.793 64.472 285.793 66.136C285.793 67.4373 286.038 68.6 286.529 69.624C287.041 70.648 287.788 71.4587 288.769 72.056C289.772 72.6533 290.966 72.952 292.353 72.952C294.06 72.952 295.681 72.6 297.217 71.896C297.366 72.024 297.494 72.2053 297.601 72.44C297.729 72.6533 297.814 72.8773 297.857 73.112C296.748 73.7307 295.66 74.2107 294.593 74.552C293.526 74.8933 292.321 75.064 290.977 75.064C289.185 75.064 287.585 74.712 286.177 74.008C284.769 73.304 283.67 72.3227 282.881 71.064C282.113 69.8053 281.729 68.376 281.729 66.776C281.729 65.048 282.166 63.576 283.041 62.36C283.937 61.1227 285.11 60.1947 286.561 59.576C288.012 58.936 289.58 58.616 291.265 58.616C293.313 58.616 295.382 59.032 297.473 59.864Z" fill="white" style="fill:white;fill-opacity:1;"/>
<path d="M317.445 58.776C317.381 60.12 317.509 61.5813 317.829 63.16C317.295 63.3947 316.613 63.512 315.781 63.512C315.674 62.4453 315.386 61.6773 314.917 61.208C314.447 60.7387 313.711 60.504 312.709 60.504H311.525V70.68C311.525 71.4053 311.578 71.9387 311.685 72.28C311.813 72.6213 312.037 72.856 312.357 72.984C312.698 73.112 313.221 73.1973 313.925 73.24C314.074 73.6027 314.149 74.1573 314.149 74.904C312.613 74.8613 311.141 74.84 309.733 74.84C308.005 74.84 306.394 74.8613 304.901 74.904C304.901 74.6267 304.922 74.328 304.965 74.008C305.007 73.688 305.061 73.432 305.125 73.24C305.829 73.1973 306.351 73.112 306.693 72.984C307.055 72.856 307.311 72.6213 307.461 72.28C307.61 71.9173 307.685 71.384 307.685 70.68V60.504H306.661C305.871 60.504 305.253 60.6107 304.805 60.824C304.378 61.0373 304.047 61.3573 303.813 61.784C303.578 62.1893 303.375 62.7653 303.205 63.512C302.33 63.512 301.679 63.4053 301.253 63.192C301.402 62.5307 301.53 61.784 301.637 60.952C301.743 60.12 301.797 59.3947 301.797 58.776C303.077 58.8187 305.69 58.84 309.637 58.84C313.583 58.84 316.186 58.8187 317.445 58.776Z" fill="white" style="fill:white;fill-opacity:1;"/>
<path d="M16.3337 24.6448L16.3337 24.6448C15.6712 24.3708 14.9308 24.7088 14.6736 25.3737L14.6734 25.3737L14.67 25.3835L8.67156 42.379C8.42008 43.0373 8.72598 43.7936 9.38041 44.0642C10.0429 44.3383 10.7833 44.0003 11.0405 43.3354L11.0407 43.3354L11.0442 43.3256L17.0426 26.33C17.2941 25.6717 16.9881 24.9155 16.3337 24.6448ZM6.51968 39.2365L6.51968 39.2365C7.01139 38.728 7.01139 37.9084 6.51968 37.3999L3.7154 34.5001L6.51968 31.6003C7.01139 31.0918 7.01139 30.2722 6.51969 29.7637C6.02164 29.2487 5.20913 29.2487 4.71108 29.7637L1.01877 33.5818C1.01877 33.5818 1.01877 33.5818 1.01877 33.5818C0.527076 34.0903 0.527076 34.9099 1.01877 35.4183C1.01877 35.4183 1.01877 35.4184 1.01877 35.4184L4.71108 39.2364L4.71109 39.2365C5.20914 39.7514 6.02163 39.7514 6.51968 39.2365ZM19.4802 29.7637L19.4802 29.7638C18.9887 30.2722 18.9887 31.0918 19.4802 31.6002L19.4802 31.6003L22.2846 34.5001L19.4802 37.3999L19.4802 37.4C18.9887 37.9084 18.9887 38.728 19.4802 39.2364L19.4803 39.2365C19.9784 39.7514 20.7909 39.7514 21.289 39.2365L21.289 39.2364L24.9813 35.4183L24.9814 35.4183C25.4729 34.9099 25.4729 34.0903 24.9814 33.5819L24.9813 33.5818L21.289 29.7637L21.289 29.7637C20.7909 29.2487 19.9784 29.2487 19.4802 29.7637Z" fill="white" stroke="white" style="fill:white;fill-opacity:1;stroke:white;stroke-opacity:1;" stroke-width="0.7"/>
</svg>
